<svg xmlns="http://www.w3.org/2000/svg" xmlns:xlink="http://www.w3.org/1999/xlink" version="1.1" id="Calque_1" x="0px" y="0px" width="100px" height="100px" viewBox="0 0 100 100" enable-background="new 0 0 100 100" xml:space="preserve">
<path d="M35.625,66.095c0.672,1.261,0.859,2.727,0.527,4.127c-0.076,0.32,0.121,0.642,0.441,0.717  c0.047,0.012,0.093,0.017,0.139,0.017c0.27,0,0.514-0.185,0.578-0.458c0.4-1.684,0.174-3.446-0.635-4.963  c-0.154-0.291-0.516-0.401-0.806-0.245C35.58,65.443,35.471,65.805,35.625,66.095z"/>
<path d="M85.881,73.872L67.842,55.834c-0.291-0.291-0.762-0.291-1.053,0l-5.334,5.333l-3.034-3.034l1.859-1.859  c0.29-0.291,0.29-0.762,0-1.053l-0.597-0.597l6.81-6.809l0.917,0.917c0.146,0.146,0.336,0.218,0.526,0.218s0.381-0.072,0.526-0.218  l3.369-3.368c0.14-0.14,0.219-0.329,0.219-0.526s-0.079-0.387-0.219-0.526l-0.428-0.429c0.37-0.378,0.576-0.877,0.576-1.407  c0-0.459-0.16-0.89-0.442-1.243c0.916-1.23,0.827-2.979-0.289-4.095c-1.12-1.12-2.874-1.205-4.104-0.28  c-0.333-0.229-0.726-0.355-1.139-0.355c-0.53,0-1.029,0.205-1.407,0.576l-1.722-1.723c0.714-0.729,0.754-1.866,0.134-2.649  c0.916-1.231,0.827-2.979-0.288-4.096c-1.121-1.12-2.875-1.205-4.107-0.28c-0.778-0.535-1.849-0.462-2.544,0.221l-0.944-0.944  c-0.279-0.279-0.773-0.279-1.053,0l-3.368,3.37c-0.29,0.291-0.29,0.762,0,1.053l0.978,0.978l-6.809,6.809l-0.457-0.457  c-0.279-0.279-0.773-0.279-1.053,0l-1.859,1.859l-2.79-2.79l5.333-5.334c0.291-0.291,0.291-0.762,0-1.053L26.012,14.003  c-0.279-0.279-0.773-0.279-1.053,0L12.817,26.145c-0.29,0.291-0.29,0.762,0,1.053l18.038,18.038c0.14,0.14,0.329,0.218,0.526,0.218  s0.387-0.078,0.526-0.218l5.755-5.755l2.79,2.79l-1.72,1.72c-0.29,0.291-0.29,0.762,0,1.053l0.427,0.427l-6.211,6.212  c-0.291,0.291-0.291,0.762,0,1.053l6.352,6.352l-2.668,2.666c-0.033,0.033-0.049,0.076-0.074,0.113  c-1.842-1.601-4.166-2.482-6.631-2.482c-1.818,0-3.605,0.486-5.165,1.406c-0.198,0.117-0.331,0.319-0.36,0.548  s0.05,0.457,0.213,0.62l4.943,4.943l-4.361,6.425c-0.201,0.298-0.162,0.697,0.096,0.95c0.144,0.141,0.332,0.212,0.521,0.212  c0.149,0,0.301-0.045,0.43-0.137l6.299-4.466l4.939,4.939c0.141,0.141,0.33,0.218,0.526,0.218c0.031,0,0.063-0.002,0.094-0.006  c0.228-0.028,0.431-0.162,0.548-0.36c2.229-3.778,1.766-8.527-1.074-11.799c0.037-0.024,0.078-0.04,0.109-0.072l2.668-2.666  l6.352,6.352c0.14,0.14,0.329,0.218,0.526,0.218s0.387-0.078,0.526-0.218l6.211-6.212l0.627,0.627  c0.146,0.146,0.336,0.218,0.526,0.218s0.381-0.072,0.526-0.218l1.72-1.72l3.034,3.034l-5.755,5.755  c-0.14,0.14-0.218,0.329-0.218,0.526s0.078,0.387,0.218,0.526l18.038,18.039c0.14,0.14,0.329,0.218,0.526,0.218  s0.387-0.078,0.526-0.218l12.143-12.142c0.139-0.14,0.218-0.329,0.218-0.526S86.02,74.012,85.881,73.872z M31.382,43.656  L14.396,26.671l11.088-11.089l16.986,16.985L31.382,43.656z M28.742,70.755l1.696-2.5l0.759,0.759L28.742,70.755z M37.816,73.053  l-11.43-11.429c1.109-0.494,2.316-0.752,3.541-0.752c2.309,0,4.479,0.898,6.11,2.529C38.596,65.96,39.269,69.809,37.816,73.053z   M70.196,38.19c0.313,0.313,0.485,0.729,0.485,1.172c0,0.277-0.075,0.541-0.203,0.779l-2.229-2.229  C68.873,37.595,69.688,37.682,70.196,38.19z M66.006,37.99c0.14,0,0.271,0.055,0.37,0.154l3.963,3.963  c0.099,0.098,0.153,0.229,0.153,0.368c0,0.133-0.053,0.257-0.143,0.354l-4.697-4.697C65.75,38.043,65.873,37.99,66.006,37.99z   M61.67,29.663c0.527,0.527,0.616,1.323,0.281,1.95l-2.232-2.232C60.347,29.048,61.142,29.134,61.67,29.663z M57.849,29.616  l3.962,3.962c0.199,0.199,0.201,0.518,0.012,0.723l-4.696-4.696C57.33,29.417,57.649,29.418,57.849,29.616z M54.602,29.186  l15.651,15.652l-2.316,2.315l-15.651-15.65L54.602,29.186z M52.736,34.059l12.703,12.704l-2.316,2.316l-1.505-1.505  c0.344-0.672,0.243-1.513-0.319-2.074c-0.563-0.563-1.402-0.664-2.074-0.319l-5.046-5.047c0.344-0.672,0.242-1.512-0.32-2.074  c-0.562-0.562-1.401-0.663-2.073-0.319l-1.365-1.365L52.736,34.059z M49.367,37.428l1.492,1.493  c-0.134,0.58,0.021,1.214,0.473,1.666c0.452,0.453,1.086,0.606,1.666,0.473l5.301,5.301c-0.134,0.581,0.021,1.214,0.473,1.666  c0.453,0.452,1.086,0.606,1.666,0.473l1.633,1.633l-1.333,1.334L48.033,38.762L49.367,37.428z M46.98,39.814l12.704,12.704  l-1.054,1.053l-1.438-1.438c-0.141-0.14-0.33-0.218-0.527-0.218s-0.387,0.078-0.525,0.218l-1.86,1.859l-8.634-8.634l1.859-1.858  c0.141-0.14,0.219-0.329,0.219-0.526s-0.078-0.387-0.219-0.526l-1.578-1.579L46.98,39.814z M43.892,40.938l2.036,2.036l-3.58,3.578  l-2.035-2.035L43.892,40.938z M47.231,64.911L34.527,52.208l2.142-2.142l5.206,5.206c-0.234,0.635-0.102,1.374,0.408,1.883  c0.51,0.51,1.249,0.643,1.883,0.409l5.207,5.205L47.231,64.911z M50.426,61.717l-5.207-5.206c0.234-0.634,0.101-1.372-0.408-1.882  c-0.51-0.51-1.248-0.643-1.883-0.408l-5.206-5.207l2.491-2.491l1.608,1.608c0.146,0.146,0.336,0.218,0.526,0.218  s0.381-0.072,0.526-0.218l1.72-1.72l8.634,8.634l-1.72,1.72c-0.14,0.14-0.219,0.329-0.219,0.526s0.079,0.387,0.219,0.526  l1.408,1.408L50.426,61.717z M55.122,59.326l-2.035-2.035l3.579-3.579l2.035,2.035L55.122,59.326z M73.212,85.487L56.227,68.501  l11.09-11.088l16.984,16.985L73.212,85.487z"/>
<path d="M59.665,67.59c-0.29,0.291-0.29,0.762,0,1.053c0.146,0.146,0.336,0.218,0.526,0.218s0.381-0.072,0.526-0.218l3.054-3.054  l1.67,1.671l-3.896,3.896c-0.29,0.291-0.29,0.762,0,1.053c0.146,0.146,0.336,0.218,0.526,0.218s0.381-0.072,0.526-0.218l3.896-3.896  l1.67,1.671l-3.895,3.895c-0.291,0.291-0.291,0.762,0,1.053c0.146,0.146,0.336,0.218,0.526,0.218s0.381-0.072,0.526-0.218  l6.738-6.737c0.29-0.291,0.29-0.762,0-1.053c-0.291-0.291-0.762-0.291-1.053,0l-1.791,1.79l-1.67-1.671l3.053-3.054  c0.291-0.291,0.291-0.762,0-1.053s-0.762-0.291-1.053,0l-3.053,3.054l-1.67-1.671l3.053-3.053c0.29-0.291,0.29-0.762,0-1.053  c-0.291-0.291-0.762-0.291-1.053,0L59.665,67.59z"/>
<path d="M66.992,77.654c0.146,0.146,0.336,0.218,0.527,0.218c0.189,0,0.381-0.072,0.525-0.218l3.896-3.896l1.67,1.671l-1.79,1.79  c-0.29,0.291-0.29,0.762,0,1.053c0.146,0.146,0.336,0.218,0.526,0.218s0.381-0.072,0.526-0.218l1.79-1.79l1.671,1.67l-3.896,3.896  c-0.291,0.291-0.291,0.762,0,1.053c0.145,0.146,0.336,0.218,0.525,0.218c0.191,0,0.381-0.072,0.527-0.218l8.001-8.002  c0.29-0.291,0.29-0.762,0-1.053c-0.291-0.291-0.762-0.291-1.053,0L77.388,77.1l-1.671-1.67l1.789-1.79  c0.291-0.291,0.291-0.762,0-1.053s-0.762-0.291-1.053,0l-1.789,1.79l-1.67-1.671l3.053-3.053c0.291-0.291,0.291-0.762,0-1.053  s-0.762-0.291-1.053,0l-8.002,8.001C66.702,76.893,66.702,77.363,66.992,77.654z"/>
<path d="M39.662,32.217c-0.291-0.291-0.762-0.291-1.053,0l-3.895,3.895l-1.671-1.67l2.843-2.843c0.29-0.291,0.29-0.762,0-1.053  c-0.291-0.291-0.762-0.291-1.053,0l-2.844,2.843l-1.67-1.671l3.896-3.896c0.29-0.291,0.29-0.762,0-1.053  c-0.291-0.291-0.762-0.291-1.053,0l-8.001,8.001c-0.291,0.291-0.291,0.762,0,1.053c0.145,0.146,0.336,0.218,0.525,0.218  c0.191,0,0.381-0.072,0.527-0.218l3.053-3.053l1.67,1.671l-1.578,1.579c-0.291,0.291-0.291,0.762,0,1.053  c0.145,0.146,0.336,0.218,0.525,0.218c0.191,0,0.381-0.072,0.527-0.218l1.579-1.579l1.671,1.67l-3.054,3.054  c-0.29,0.291-0.29,0.762,0,1.053c0.146,0.146,0.336,0.218,0.526,0.218s0.381-0.072,0.526-0.218l8.001-8.001  C39.953,32.979,39.953,32.508,39.662,32.217z"/>
<path d="M31.492,24.047c-0.291-0.291-0.762-0.291-1.053,0l-3.895,3.895l-1.671-1.67l3.896-3.896c0.29-0.291,0.29-0.762,0-1.053  c-0.291-0.291-0.762-0.291-1.053,0l-3.896,3.896l-1.671-1.671l3.053-3.053c0.291-0.291,0.291-0.762,0-1.053s-0.762-0.291-1.053,0  l-5.475,5.474c-0.29,0.291-0.29,0.762,0,1.053c0.146,0.146,0.336,0.218,0.527,0.218c0.189,0,0.381-0.072,0.525-0.218l1.369-1.368  l1.671,1.671l-3.474,3.474c-0.291,0.291-0.291,0.762,0,1.053c0.145,0.146,0.336,0.218,0.525,0.218c0.191,0,0.381-0.072,0.527-0.218  l3.474-3.474l1.671,1.67l-1.791,1.79c-0.29,0.291-0.29,0.762,0,1.053c0.146,0.146,0.336,0.218,0.527,0.218  c0.189,0,0.381-0.072,0.525-0.218l6.738-6.737C31.783,24.809,31.783,24.338,31.492,24.047z"/>
</svg>