<?xml version="1.0" encoding="utf-8"?>
<!-- Generator: Adobe Illustrator 16.0.4, SVG Export Plug-In . SVG Version: 6.00 Build 0)  -->
<!DOCTYPE svg PUBLIC "-//W3C//DTD SVG 1.1//EN" "http://www.w3.org/Graphics/SVG/1.1/DTD/svg11.dtd">
<svg version="1.1" id="Layer_1" xmlns="http://www.w3.org/2000/svg" xmlns:xlink="http://www.w3.org/1999/xlink" x="0px" y="0px"
	 width="108px" height="99.891px" viewBox="0 0 108 99.891" enable-background="new 0 0 108 99.891" xml:space="preserve">
<rect x="35.822" y="18.479" transform="matrix(0.7673 -0.6413 0.6413 0.7673 -8.3239 32.7176)" fill="none" stroke="#C82F2D" stroke-width="2.78" stroke-linecap="round" stroke-linejoin="round" stroke-miterlimit="10" width="10.192" height="18.698"/>
<rect x="68.271" y="56.42" transform="matrix(0.7673 -0.6413 0.6413 0.7673 -25.1045 62.3534)" fill="none" stroke="#C82F2D" stroke-width="2.78" stroke-linecap="round" stroke-linejoin="round" stroke-miterlimit="10" width="10.191" height="18.698"/>
<g>
	
		<path fill="none" stroke="#C82F2D" stroke-width="2.78" stroke-linecap="round" stroke-linejoin="round" stroke-miterlimit="10" d="
		M44.383,43.991l12.808,15.145l14.965-12.602c0,0,5.657-6.361,0.065-13.001c-5.593-6.641-12.947-2.298-12.947-2.298L44.383,43.991z"
		/>
	
		<path fill="none" stroke="#C82F2D" stroke-width="2.78" stroke-linecap="round" stroke-linejoin="round" stroke-miterlimit="10" d="
		M36.557,50.281l13.187,15.46c0,0,7.427-6.255,0.883-14.025C44.083,43.944,36.557,50.281,36.557,50.281z"/>
	
		<path fill="none" stroke="#C82F2D" stroke-width="2.78" stroke-linecap="round" stroke-linejoin="round" stroke-miterlimit="10" d="
		M34.135,57.347c0,0-0.778,3.219,1.997,6.515c3.065,3.641,6.269,3.002,6.269,3.002"/>
	
		<path fill="none" stroke="#C82F2D" stroke-width="2.78" stroke-linecap="round" stroke-linejoin="round" stroke-miterlimit="10" d="
		M29.104,59.113c0,0-1.006,4.159,2.58,8.417c3.961,4.703,8.1,3.88,8.1,3.88"/>
	
		<path fill="none" stroke="#C82F2D" stroke-width="2.78" stroke-linecap="round" stroke-linejoin="round" stroke-miterlimit="10" d="
		M23.775,59.712c0,0-1.373,5.681,3.522,11.493c5.407,6.42,11.058,5.296,11.058,5.296"/>
	
		<polygon fill="none" stroke="#C82F2D" stroke-width="2.78" stroke-linecap="round" stroke-linejoin="round" stroke-miterlimit="10" points="
		43.797,58.979 40.316,60.187 42.183,57.061 	"/>
	
		<line fill="none" stroke="#C82F2D" stroke-width="2.78" stroke-linecap="round" stroke-linejoin="round" stroke-miterlimit="10" x1="63.43" y1="54.174" x2="67.104" y2="58.539"/>
	
		<line fill="none" stroke="#C82F2D" stroke-width="2.78" stroke-linecap="round" stroke-linejoin="round" stroke-miterlimit="10" x1="47.235" y1="34.951" x2="50.386" y2="38.693"/>
</g>
</svg>
