<?xml version="1.0" encoding="utf-8"?>
<!-- Generator: Adobe Illustrator 16.0.4, SVG Export Plug-In . SVG Version: 6.00 Build 0)  -->
<!DOCTYPE svg PUBLIC "-//W3C//DTD SVG 1.1//EN" "http://www.w3.org/Graphics/SVG/1.1/DTD/svg11.dtd">
<svg version="1.1" id="Layer_1" xmlns="http://www.w3.org/2000/svg" xmlns:xlink="http://www.w3.org/1999/xlink" x="0px" y="0px"
	 width="513.784px" height="99.891px" viewBox="0 0 513.784 99.891" enable-background="new 0 0 513.784 99.891"
	 xml:space="preserve">
<g>
	
		<circle fill="none" stroke="#C82F2D" stroke-width="4.78" stroke-linecap="round" stroke-linejoin="round" stroke-miterlimit="10" cx="53.935" cy="49.394" r="42.548"/>
	
		<rect x="35.822" y="18.479" transform="matrix(0.7673 -0.6413 0.6413 0.7673 -8.3241 32.7161)" fill="none" stroke="#C82F2D" stroke-width="2.78" stroke-linecap="round" stroke-linejoin="round" stroke-miterlimit="10" width="10.192" height="18.698"/>
	
		<rect x="68.271" y="56.42" transform="matrix(0.7673 -0.6413 0.6413 0.7673 -25.1046 62.3563)" fill="none" stroke="#C82F2D" stroke-width="2.78" stroke-linecap="round" stroke-linejoin="round" stroke-miterlimit="10" width="10.19" height="18.698"/>
	
		<path fill="none" stroke="#C82F2D" stroke-width="2.78" stroke-linecap="round" stroke-linejoin="round" stroke-miterlimit="10" d="
		M44.383,43.991l12.808,15.145l14.965-12.602c0,0,5.657-6.361,0.065-13.001c-5.592-6.641-12.947-2.298-12.947-2.298L44.383,43.991z"
		/>
	
		<path fill="none" stroke="#C82F2D" stroke-width="2.78" stroke-linecap="round" stroke-linejoin="round" stroke-miterlimit="10" d="
		M36.557,50.281l13.187,15.46c0,0,7.427-6.255,0.883-14.025C44.083,43.944,36.557,50.281,36.557,50.281z"/>
	
		<path fill="none" stroke="#C82F2D" stroke-width="2.78" stroke-linecap="round" stroke-linejoin="round" stroke-miterlimit="10" d="
		M34.135,57.347c0,0-0.778,3.219,1.997,6.515c3.065,3.641,6.269,3.002,6.269,3.002"/>
	
		<path fill="none" stroke="#C82F2D" stroke-width="2.78" stroke-linecap="round" stroke-linejoin="round" stroke-miterlimit="10" d="
		M29.104,59.113c0,0-1.006,4.159,2.58,8.417c3.961,4.703,8.1,3.88,8.1,3.88"/>
	
		<path fill="none" stroke="#C82F2D" stroke-width="2.78" stroke-linecap="round" stroke-linejoin="round" stroke-miterlimit="10" d="
		M23.775,59.712c0,0-1.373,5.681,3.522,11.493c5.407,6.42,11.058,5.296,11.058,5.296"/>
	
		<polygon fill="none" stroke="#C82F2D" stroke-width="2.78" stroke-linecap="round" stroke-linejoin="round" stroke-miterlimit="10" points="
		43.797,58.979 40.316,60.187 42.183,57.061 	"/>
	
		<line fill="none" stroke="#C82F2D" stroke-width="2.78" stroke-linecap="round" stroke-linejoin="round" stroke-miterlimit="10" x1="63.43" y1="54.174" x2="67.104" y2="58.539"/>
	
		<line fill="none" stroke="#C82F2D" stroke-width="2.78" stroke-linecap="round" stroke-linejoin="round" stroke-miterlimit="10" x1="47.235" y1="34.951" x2="50.386" y2="38.693"/>
</g>
<path fill="#3E3935" d="M468.151,31.208h-9.846c-0.842,0-1.452-0.689-1.452-1.452v-4.288c0-0.767,0.61-1.456,1.452-1.456h32.915
	c0.843,0,1.457,0.689,1.457,1.456v4.288c0,0.763-0.614,1.452-1.457,1.452h-9.466H468.151z"/>
<path fill="#3E3935" d="M116.989,70.328c0.689-0.993,1.301-2.144,1.991-3.138c0.688-0.996,1.759-1.301,2.603-0.61
	c0.458,0.382,6.353,5.279,12.246,5.279c5.283,0,8.651-3.214,8.651-7.118c0-4.595-3.98-7.503-11.559-10.642
	c-7.808-3.29-13.932-7.348-13.932-16.228c0-5.972,4.594-14.161,16.764-14.161c7.655,0,13.397,3.979,14.162,4.515
	c0.612,0.384,1.225,1.455,0.46,2.603c-0.613,0.92-1.302,1.99-1.914,2.91c-0.613,0.994-1.608,1.453-2.68,0.765
	c-0.536-0.306-5.894-3.827-10.334-3.827c-6.431,0-8.65,4.056-8.65,6.889c0,4.363,3.368,7.043,9.722,9.645
	c8.88,3.599,16.459,7.807,16.459,17.147c0,7.96-7.12,14.468-17.071,14.468c-9.34,0-15.234-4.898-16.459-6.048
	C116.759,72.167,116.223,71.63,116.989,70.328"/>
<path fill="#3E3935" d="M216.203,50.81v26.637c0,0.766-0.689,1.379-1.454,1.379h-1.991l-33.222-39.501h-0.077v37.282
	c0,0.765-0.613,1.453-1.454,1.453h-4.823c-0.766,0-1.455-0.688-1.455-1.453V25.085c0-0.764,0.689-1.376,1.455-1.376h1.914
	l33.223,38.428h0.076V50.81H216.203z"/>
<path fill="#3E3935" d="M259.308,38.866h-0.383c0,0-15.464,34.523-16.994,38.044c-0.23,0.535-0.842,1.149-1.761,1.149h-4.823
	c-1.148,0-1.76-0.996-1.301-1.99l23.501-51.518c0.229-0.46,0.919-0.842,1.302-0.842h0.766c0.383,0,1.071,0.382,1.301,0.842
	l23.349,51.518c0.459,0.994-0.154,1.99-1.302,1.99h-4.822c-0.919,0-1.455-0.459-1.761-1.149L259.308,38.866z"/>
<path fill="#3E3935" d="M319.553,51.113c5.282,0,9.722-4.286,9.722-9.798c0-5.203-4.439-9.185-9.722-9.185l-18.448-0.055v-6.146
	c0-0.765,0.613-1.454,1.454-1.454h17.454c9.416,0,17.148,7.655,17.148,16.918c0,9.492-7.732,17.223-17.071,17.223h-11.101v17.991
	c0,0.767-0.688,1.454-1.453,1.454h-4.978c-0.841,0-1.454-0.688-1.454-1.454V51.061L319.553,51.113z"/>
<path fill="#3E3935" d="M352.319,70.328c0.688-0.993,1.301-2.144,1.99-3.138c0.688-0.996,1.761-1.301,2.603-0.61
	c0.459,0.382,6.354,5.279,12.247,5.279c5.283,0,8.651-3.214,8.651-7.118c0-4.595-3.98-7.503-11.559-10.642
	c-7.809-3.29-13.933-7.348-13.933-16.228c0-5.972,4.593-14.161,16.765-14.161c7.655,0,13.396,3.979,14.161,4.515
	c0.613,0.384,1.227,1.455,0.459,2.603c-0.612,0.92-1.302,1.99-1.913,2.91c-0.613,0.994-1.607,1.453-2.68,0.765
	c-0.536-0.306-5.895-3.827-10.335-3.827c-6.43,0-8.647,4.056-8.647,6.889c0,4.363,3.366,7.043,9.72,9.645
	c8.881,3.599,16.458,7.807,16.458,17.147c0,7.96-7.118,14.468-17.07,14.468c-9.339,0-15.232-4.898-16.458-6.048
	C352.091,72.167,351.553,71.63,352.319,70.328"/>
<path fill="#3E3935" d="M424.125,38.866h-0.382c0,0-15.464,34.523-16.995,38.044c-0.229,0.535-0.841,1.149-1.76,1.149h-4.824
	c-1.146,0-1.761-0.996-1.302-1.99l23.502-51.518c0.229-0.46,0.92-0.842,1.302-0.842h0.767c0.383,0,1.072,0.382,1.302,0.842
	l23.348,51.518c0.458,0.994-0.155,1.99-1.302,1.99h-4.823c-0.919,0-1.455-0.459-1.76-1.149L424.125,38.866z"/>
<path fill="#C82F2D" d="M208.395,32.2v-7.57c0-0.447,0.612-1.134,1.455-1.134h4.899c0.766,0,1.454,0.687,1.454,1.131V32.2H208.395z"
	/>
<path fill="#3E3935" d="M478.745,50.903v25.242c0,0.764-0.688,1.452-1.456,1.452h-5.051c-0.765,0-1.452-0.688-1.452-1.452V50.872
	L478.745,50.903z"/>
</svg>
