<?xml version="1.0" standalone="no"?>
<!DOCTYPE svg PUBLIC "-//W3C//DTD SVG 1.1//EN" "http://www.w3.org/Graphics/SVG/1.1/DTD/svg11.dtd" >
<svg xmlns="http://www.w3.org/2000/svg">
<metadata></metadata>
<defs>
<font id="SSSocialRegular" >
<font-face font-family="SS Social" units-per-em="2048" ascent="2176" descent="-640" />
<missing-glyph  />
<glyph  horiz-adv-x="2048"  />
<glyph unicode="&#x2709;" horiz-adv-x="2048" d="M2048 1664l-1024 -768l-1024 768q0 53 37.5 90.5t90.5 37.5h1792q53 0 90.5 -37.5t37.5 -90.5zM0 1434l1024 -768l1024 768v-1050q0 -53 -37.5 -90.5t-90.5 -37.5h-1792q-53 0 -90.5 37.5t-37.5 90.5v1050z" />
<glyph unicode="&#xe310;" horiz-adv-x="2048" d="M43 2048q273 0 532.5 -72t479.5 -201.5t405 -314.5t314.5 -405t201.5 -479.5t72 -532.5q0 -18 -12.5 -30.5t-30.5 -12.5h-298q-18 0 -30.5 12.5t-12.5 30.5q0 221 -58 431t-162.5 388t-254 327.5t-327.5 254t-388 162.5t-431 58q-18 0 -30.5 12.5t-12.5 30.5v298
q0 18 12.5 30.5t30.5 12.5zM43 1408q185 0 362 -49t327 -137t276 -214t214 -276t137 -327t49 -362q0 -18 -12.5 -30.5t-30.5 -12.5h-298q-18 0 -30.5 12.5t-12.5 30.5q0 200 -77.5 381.5t-209 313t-313 209t-381.5 77.5q-18 0 -30.5 12.5t-12.5 30.5v298q0 18 12.5 30.5
t30.5 12.5zM320 640q131 0 225.5 -94.5t94.5 -225.5q0 -133 -94 -226.5t-226 -93.5q-134 0 -227 93t-93 227q0 132 93.5 226t226.5 94z" />
<glyph unicode="&#xf601;" horiz-adv-x="2048" d="M1664 768q159 0 271.5 -112.5t112.5 -271.5t-112.5 -271.5t-271.5 -112.5t-271.5 112.5t-112.5 271.5v1l-665 332q-103 -77 -231 -77q-159 0 -271.5 112.5t-112.5 271.5t112.5 271.5t271.5 112.5q128 0 231 -77l665 332v1q0 159 112.5 271.5t271.5 112.5t271.5 -112.5
t112.5 -271.5t-112.5 -271.5t-271.5 -112.5q-128 0 -231 77l-667 -333l667 -333q103 77 231 77z" />
<glyph unicode="&#xf610;" horiz-adv-x="2048" d="M1920 2048q52 0 90 -38t38 -90v-1792q0 -52 -38 -90t-90 -38h-512v796h256l43 295h-299v232q0 64 32.5 98t95.5 34h192v266q-86 14 -210 14q-206 0 -314.5 -104.5t-108.5 -284.5v-255h-256v-295h256v-796h-967q-52 0 -90 38t-38 90v1792q0 52 38 90t90 38h1792z" />
<glyph unicode="&#xf611;" horiz-adv-x="2048" d="M2048 1681q-84 -127 -209 -218v-55q0 -140 -35.5 -281.5t-102 -275t-170.5 -249.5t-233 -202.5t-297.5 -136.5t-355.5 -50q-379 0 -645 171q46 -7 100 -7q140 0 274 54t247 145q-135 1 -243.5 83.5t-147.5 208.5q42 -8 78 -8q58 0 112 15q-145 29 -241 144.5t-96 267.5v5
q90 -49 190 -52q-87 58 -137.5 150t-50.5 198q0 103 57 204q158 -192 382 -304.5t483 -126.5q-9 39 -9 97q0 174 122.5 296.5t296.5 122.5q179 0 309 -132q143 29 265 102q-48 -152 -185 -233q125 14 242 67z" />
<glyph unicode="&#xf612;" horiz-adv-x="2048" d="M512 1771q0 -101 -71 -168t-187 -67h-3q-111 0 -181 67.5t-70 167.5q0 101 71.5 167.5t186.5 66.5q113 0 182.5 -66.5t71.5 -167.5zM43 1323h426v-1323h-426v1323zM1152 768v-768h-427v1024q-7 254 -7 299h420l14 -183q68 103 165 164t219 61q230 0 371 -157.5
t141 -439.5v-768h-427v725q0 152 -64.5 225.5t-167.5 73.5q-102 0 -169.5 -66.5t-67.5 -189.5z" />
<glyph unicode="&#xf613;" horiz-adv-x="2048" d="M2048 1579v-86h-341v-341h-86v341h-341v86h341v341h86v-341h341zM889 882q104 -76 145.5 -154t41.5 -195q0 -74 -35.5 -142.5t-100 -123t-166.5 -87.5t-226 -33q-149 0 -273 37.5t-199.5 110.5t-75.5 167q0 151 154.5 269t371.5 118h93q-71 69 -71 147q0 55 26 101
q-17 -2 -50 -2q-180 0 -294 112t-114 277q0 103 66 194.5t174 145t227 53.5h536l-121 -87h-171q82 -31 127.5 -116.5t45.5 -192.5q0 -163 -151 -279q-63 -51 -82.5 -80.5t-19.5 -73.5q0 -34 47.5 -84.5t94.5 -81.5zM602 1150q103 -4 163.5 90t42.5 230q-17 136 -103 232
t-191 99q-103 4 -163.5 -88t-42.5 -227q18 -136 104.5 -234.5t189.5 -101.5zM548 232q204 0 296 76.5t92 203.5q0 17 -4 55q-6 21 -18.5 41.5t-22 33.5t-36.5 34.5t-37.5 29.5t-50 35.5t-51.5 35.5q-58 17 -133 22q-102 0 -191.5 -37.5t-143.5 -102.5t-54 -140
q0 -119 100.5 -203t253.5 -84z" />
<glyph unicode="&#xf614;" horiz-adv-x="2048" d="M553 815h942l-471 709zM1024 1877l1076 -1621h-232l-259 384h-1170l-259 -384h-232z" />
<glyph unicode="&#xf615;" horiz-adv-x="2048" d="M1778 453q25 -101 5 -184.5t-70 -143t-120 -92.5t-146 -33q-68 0 -140 27.5t-110 52t-122 85.5q-18 13 -27 19q-73 55 -123 88t-128 72t-167.5 58t-191.5 19q-76 0 -166 -18q-31 106 3 209t154 226q155 163 370 409t351 411q-175 -27 -326 -27q-52 0 -96.5 6t-89.5 20.5
t-71 44.5t-26 73q0 54 32.5 122t64.5 109l33 42q129 -90 489 -90q270 0 515 50q9 -27 9 -81q0 -66 -38.5 -126t-145.5 -179q-136 -154 -430 -472t-407 -456q77 -9 143 -26t125.5 -44.5t94 -47t93.5 -56.5q61 -41 94 -60.5t90 -46.5t118 -38.5t133 -11.5q66 0 115 18t109 72z
" />
<glyph unicode="&#xf616;" horiz-adv-x="2048" d="M2091 1088q0 -59 -27.5 -110t-74.5 -84q16 -60 16 -126q0 -111 -49.5 -215.5t-140 -188.5t-211.5 -147t-270.5 -97.5t-309.5 -34.5t-309.5 34.5t-270.5 97.5t-211.5 147t-140 188.5t-49.5 215.5q0 66 16 126q-47 33 -74.5 84t-27.5 110q0 98 68.5 166.5t166.5 68.5
q90 0 156 -60q133 87 304 136.5t360 51.5l133 400q6 19 23 29t37 6l352 -71q24 48 70 76.5t101 28.5q80 0 136 -56t56 -136t-56 -136t-136 -56q-76 0 -131 51.5t-60 125.5l-307 62l-109 -328q335 -23 579 -184q66 60 156 60q98 0 166.5 -68.5t68.5 -166.5zM1344 768
q62 0 105.5 44t43.5 105q0 62 -43.5 106t-105.5 44t-105.5 -44t-43.5 -106q0 -61 43.5 -105t105.5 -44zM555 917q0 -61 43.5 -105t105.5 -44t105.5 44t43.5 105q0 62 -43.5 106t-105.5 44t-105.5 -44t-43.5 -106zM1378 453q15 13 17.5 32t-9.5 35q-12 15 -31.5 17.5
t-35.5 -9.5q-124 -97 -295 -97t-295 97q-16 12 -35.5 9.5t-31.5 -17.5q-12 -16 -9.5 -35t17.5 -32q148 -116 354 -116t354 116z" />
<glyph unicode="&#xf617;" horiz-adv-x="2048" d="M1771 1472q115 0 196 -81t81 -196q0 -111 -76 -191t-185 -86l-272 -195q-2 -88 -64 -149.5t-150 -61.5q-74 0 -132 46.5t-75 116.5l-775 334q-51 -28 -106 -28q-88 0 -150.5 62.5t-62.5 151.5t62 151t151 62q75 0 133 -46t75 -117l774 -334q53 28 106 28h1l191 256
q1 115 82 196t196 81zM1771 1003q79 0 135.5 56.5t56.5 135.5t-56.5 135.5t-135.5 56.5t-135.5 -56.5t-56.5 -135.5t56.5 -135.5t135.5 -56.5zM1771 1344q61 0 105 -44t44 -105q0 -62 -43.5 -106t-105.5 -44t-106 44t-44 106t44 105.5t106 43.5zM347 1265q7 5 8 14t-4 16
q-51 70 -138 70q-71 0 -120.5 -49.5t-49.5 -120.5t50 -121t120 -50q10 0 24 2q9 1 14.5 8t3.5 16q-1 8 -8 13.5t-16 4.5q-6 -1 -18 -1q-53 0 -90.5 37.5t-37.5 90.5t37.5 90.5t90.5 37.5q65 0 104 -53q13 -17 30 -5zM1301 555q71 0 121 49.5t50 120.5t-50 121t-121 50
q-8 0 -24 -2q-8 -1 -13.5 -8t-4.5 -16q2 -8 9 -13.5t15 -4.5q6 1 18 1q53 0 90.5 -37.5t37.5 -90.5t-37.5 -90.5t-90.5 -37.5q-64 0 -103 53q-13 17 -30 5q-16 -13 -5 -30q51 -70 138 -70z" />
<glyph unicode="&#xf618;" horiz-adv-x="2048" d="M1024 2048q209 0 398.5 -81t326.5 -218t218 -326.5t81 -398.5t-81 -398.5t-218 -326.5t-326.5 -218t-398.5 -81t-398.5 81t-326.5 218t-218 326.5t-81 398.5t81 398.5t218 326.5t326.5 218t398.5 81zM1618 870q7 23 -5.5 45t-35.5 27q-23 7 -45 -5.5t-27 -35.5
q-44 -164 -178 -268t-303 -104t-303 104t-178 268q-5 23 -26.5 34.5t-45.5 6.5q-23 -5 -34.5 -26.5t-6.5 -45.5q51 -202 217.5 -331t376.5 -129t376.5 129t217.5 331z" />
<glyph unicode="&#xf619;" horiz-adv-x="2048" d="M1688 604q-185 0 -304 117.5t-119 308.5q0 178 116 301t294 123q180 0 288.5 -123t108.5 -316v-44h-623q10 -95 78.5 -159t177.5 -64q63 0 126 24t105 67l81 -116q-127 -119 -329 -119zM1903 1097q-4 83 -62.5 147.5t-167.5 64.5q-103 0 -161.5 -64.5t-64.5 -147.5h456z
M1169 624h-176v528q0 146 -134 146q-55 0 -106.5 -32t-80.5 -75v-567h-176v528q0 146 -133 146q-54 0 -105 -32t-82 -75v-567h-176v809h176v-108q33 45 107 87t158 42q87 0 143.5 -40t77.5 -108q37 59 112.5 103.5t161.5 44.5q112 0 172.5 -62t60.5 -183v-585z" />
<glyph unicode="&#xf61a;" horiz-adv-x="2048" d="M1062 427h-120q-126 0 -264 59.5t-243 164.5q-137 137 -281.5 376.5t-249.5 477.5q-13 30 -13 47q0 48 82 48h279q48 0 76 -28q9 -9 25 -45.5t45 -99.5t63 -121q81 -138 130.5 -196t81.5 -58q68 0 68 208q0 136 -10 190t-37 81q-19 19 -41.5 26.5t-34.5 9t-12 7.5t4.5 15
t22 23t45.5 25t81.5 19t122.5 8q120 0 179.5 -16.5t76.5 -46t17 -89.5q0 -19 -3.5 -133.5t-3.5 -186.5q0 -41 6 -70t15.5 -42t18 -18.5t17.5 -5.5q61 0 190 212q84 137 142 289q17 43 69 43h358q84 0 84 -51q0 -36 -44 -119.5t-128 -191.5q-139 -180 -163 -222
q-20 -35 -20 -56q0 -26 28 -60t106 -113l46 -46q103 -104 136.5 -151.5t33.5 -87.5q0 -37 -30.5 -56t-63.5 -19h-295q-118 0 -231 132q-41 48 -56.5 65t-43 44.5t-46 36.5t-36.5 9q-36 0 -61.5 -53.5t-27.5 -142.5q-1 -52 -24 -71.5t-66 -19.5z" />
<glyph unicode="&#xf61b;" horiz-adv-x="2048" d="M2064 1225q-11 -32 -40.5 -46.5t-60.5 -4.5t-46.5 39.5t-5.5 61.5q33 95 11.5 200t-93.5 185q-71 80 -171.5 111t-202.5 10q-33 -7 -60.5 11t-34.5 50q-7 33 11 60.5t50 34.5q143 31 284.5 -13.5t242.5 -156.5t131 -259t-15 -282v-1zM877 256q-164 0 -320.5 39
t-280.5 108.5t-200 176.5t-76 232q0 134 81.5 286t230.5 301q144 144 297 228t265 84q79 0 123.5 -43.5t44.5 -123.5q0 -46 -12 -90t-12 -47q0 -17 19 -17q7 0 15 2t14 4l5 2q164 69 289 69q95 0 149 -42t54 -118q0 -51 -27 -119q-4 -11 -4.5 -19.5t1.5 -13.5t9 -9.5
t12 -6.5t17 -5q48 -15 90.5 -38.5t80 -58t60 -83t22.5 -105.5q0 -79 -43 -162.5t-127.5 -160t-197 -137.5t-263.5 -97t-316 -36zM1793 1313q-8 -27 -33.5 -40t-52.5 -4q-27 8 -40 33.5t-5 52.5q24 74 -27 129q-51 56 -126 41q-28 -6 -51.5 9.5t-29.5 43.5t9.5 52t43.5 30
q70 15 138.5 -6.5t117.5 -76.5t64 -126.5t-8 -137.5zM784 375q184 0 341.5 63t248.5 166.5t91 220.5q0 113 -80.5 201.5t-210.5 135t-283 46.5q-181 0 -339 -63t-250 -167t-92 -221q0 -108 76 -195.5t207.5 -137t290.5 -49.5zM823 1039q137 0 219.5 -80t82.5 -183
q0 -127 -108 -221.5t-254 -94.5q-126 0 -213.5 76.5t-87.5 188.5q0 129 109 221.5t252 92.5zM838 769q15 -6 32.5 0.5t26.5 21.5q9 16 4 31.5t-20 20.5q-16 7 -33 0.5t-26 -22.5q-9 -15 -4.5 -30t20.5 -22zM628 598q40 -19 87 -3.5t72 55.5t13.5 80.5t-52.5 58.5
q-40 17 -85.5 1.5t-70.5 -54.5t-14.5 -79.5t50.5 -58.5z" />
<glyph unicode="&#xf61c;" horiz-adv-x="2048" d="M1552 2048h299q26 0 39 -19q12 -18 -1 -45l-654 -1157v-2l417 -760q13 -27 0 -46q-11 -19 -39 -19h-295q-51 0 -83 56q-418 768 -419 770l657 1166q15 27 32 41.5t47 14.5zM319 1664h293q52 0 82 -55q201 -350 202 -352l-317 -560q-32 -57 -80 -57h-293q-26 0 -39 20
q-12 20 0 45l312 550v2l-198 344q-14 25 -2 45q10 18 40 18z" />
<glyph unicode="&#xf620;" horiz-adv-x="2048" d="M1664 111q-7 -5 -20.5 -12t-59 -26.5t-96 -34t-130.5 -26.5t-163 -12q-285 0 -420 127t-135 385v640h-299v299q82 27 143.5 58t119.5 78.5t97.5 109t68 150t41.5 201.5h298v-512h470v-384h-470v-512q0 -85 10 -137.5t38 -91t78 -54.5t130 -16q57 0 131.5 21.5t121.5 43.5
l46 21v-316z" />
<glyph unicode="&#xf621;" horiz-adv-x="2048" d="M1024 2048q209 0 398.5 -81t326.5 -218t218 -326.5t81 -398.5t-81 -398.5t-218 -326.5t-326.5 -218t-398.5 -81t-398.5 81t-326.5 218t-218 326.5t-81 398.5t81 398.5t218 326.5t326.5 218t398.5 81zM1024 128q182 0 348 71t286 191t191 286t71 348t-71 348t-191 286
t-286 191t-348 71t-348 -71t-286 -191t-191 -286t-71 -348t71 -348t191 -286t286 -191t348 -71zM1401 1455q0 -10 1 -20.5t4 -21t5.5 -19t8 -20.5t8.5 -18.5t10.5 -20t10.5 -19t12.5 -21t12.5 -20.5q64 -103 64 -211q0 -12 -1.5 -26t-3 -25t-5.5 -29t-6.5 -28t-9.5 -33
t-9.5 -32.5t-11.5 -37.5t-12 -38l-76 -256l-277 825l88 7q20 2 27 18.5t-2.5 31.5t-29.5 14q-123 -9 -204 -9l-204 9q-19 1 -28 -14t-2.5 -32t25.5 -18q41 -4 81 -7l121 -327l-168 -505l-280 832l88 7q19 2 25.5 18.5t-2.5 31.5t-28 14q-126 -9 -204 -9h-47
q104 159 274 252.5t368 93.5q146 0 278 -52.5t236 -146.5h-9q-55 0 -91.5 -41t-36.5 -97zM1697 1391q95 -167 95 -367q0 -209 -104 -385.5t-278 -278.5l235 678q57 144 57 275q0 55 -5 78zM256 1024q0 156 64 308l365 -998q-194 96 -311.5 281t-117.5 409zM1033 958
l242 -659q-116 -43 -251 -43q-105 0 -218 31z" />
<glyph unicode="&#xf622;" horiz-adv-x="2048" d="M1920 1280q53 0 90.5 -37.5t37.5 -90.5v-512q0 -130 -51 -248.5t-136.5 -204t-204 -136.5t-248.5 -51h-768q-130 0 -248.5 51t-204 136.5t-136.5 204t-51 248.5v768q0 130 51 248.5t136.5 204t204 136.5t248.5 51h384q130 0 248.5 -51t204 -136.5t136.5 -204t51 -248.5
q0 -53 31 -90.5t76 -37.5h149zM640 1536q-53 0 -90.5 -37.5t-37.5 -90.5t37.5 -90.5t90.5 -37.5h384q53 0 90.5 37.5t37.5 90.5t-37.5 90.5t-90.5 37.5h-384zM1408 512q53 0 90.5 37.5t37.5 90.5t-37.5 90.5t-90.5 37.5h-768q-53 0 -90.5 -37.5t-37.5 -90.5t37.5 -90.5
t90.5 -37.5h768z" />
<glyph unicode="&#xf624;" horiz-adv-x="2048" d="M1710 183h19l26 -171q-67 -28 -149 -28q-117 0 -219.5 66t-158.5 182q-118 -27 -233 -27q-199 0 -360 62.5t-273.5 180.5t-173 292.5t-60.5 393.5q0 197 70 367.5t192 290t293.5 188t367.5 68.5q403 0 636 -239t233 -675q0 -258 -115.5 -467t-317.5 -330q47 -82 100 -118
t123 -36zM1037 772q92 0 176 -46t144 -128q136 181 136 536q0 342 -124 513t-346 171q-219 0 -343.5 -178.5t-124.5 -505.5q0 -154 21 -273t60 -199t97.5 -131t129.5 -73.5t160 -22.5q62 0 116 15q-38 73 -81.5 105t-104.5 32q-4 0 -14.5 -1.5t-16.5 -1.5l-28 157
q73 31 143 31z" />
<glyph unicode="&#xf630;" horiz-adv-x="2048" d="M1024 1749q464 0 610 -13q211 -18 296 -85q79 -62 102 -205q16 -102 16 -392v-30q0 -301 -13 -401q-21 -152 -95 -217q-79 -71 -278 -91q-148 -16 -596 -16h-1h-1h-1h-1h-1h-1h-1h-1h-1h-1h-1h-1h-1h-1h-1h-1h-1h-1h-1h-1h-1h-1h-1h-1h-1h-1h-1h-1h-1h-1h-1h-1h-1h-9
q-464 0 -610 13q-211 18 -296 85q-79 62 -102 205q-16 102 -16 392v30q0 301 13 401q21 152 95 217q79 71 278 91q148 16 596 16h1h1h1h1h1h1h1h1h1h1h1h1h1h1h1h1h1h1h1h1h1h1h1h1h1h1h1h1h1h1h1h1h1h9zM768 640l640 384l-640 384v-768z" />
<glyph unicode="&#xf631;" horiz-adv-x="2048" d="M1451 1323q0 66 -28.5 109t-85.5 52t-142 -33q24 98 74 179.5t109 133.5t127 88.5t129 52t115 15.5q130 0 214.5 -95.5t84.5 -250.5q0 -132 -61.5 -297.5t-159 -322.5t-219.5 -309t-242 -265t-228.5 -182.5t-175.5 -69.5q-49 0 -93 15.5t-76 38t-61.5 58.5t-48 66.5
t-37.5 74t-28 69t-21 62.5l-256 811q-18 55 -43.5 75t-77 4t-135.5 -79l-85 104q8 10 22.5 28t59.5 69t90 97.5t108.5 103.5t121 98t122 69t116.5 28q47 0 85 -17.5t64.5 -45t48.5 -71t35 -84t24 -97.5t16.5 -98t13 -98t12.5 -86q15 -95 31.5 -180t40.5 -176t53.5 -145
t59.5 -54q41 0 120 102t143 237t64 216z" />
<glyph unicode="&#xf632;" horiz-adv-x="2048" d="M256 341h256v1366h-256v341h896v-341h-256v-1366h555v384h403v-725h-1598v341z" />
<glyph unicode="&#xf633;" horiz-adv-x="2048" d="M1320 1598q0 -123 40.5 -233.5t113.5 -195t184.5 -134t244.5 -49.5v-246q-103 -3 -199 14q-203 -439 -588 -726q-40 -33 -85 -33q-35 0 -81 29q-372 258 -584 711.5t-212 1013.5h294q0 -453 151.5 -825t426.5 -597q255 220 402 528q-129 77 -221 198.5t-136.5 263.5
t-44.5 295q0 88 29.5 166.5t83.5 138.5t137.5 95.5t185.5 35.5t186.5 -36.5t139.5 -98t85 -139.5t30 -162q0 -42 -1.5 -82t-6.5 -89.5t-7.5 -74t-11 -89.5t-10.5 -82h-294q2 18 11 87.5t13.5 106.5t9 98t4.5 111q0 161 -148 161q-142 0 -142 -161z" />
<glyph unicode="&#xf640;" horiz-adv-x="2048" d="M1579 1493q127 0 235 -63t171 -171t63 -235t-63 -235t-171 -171t-235 -63t-235.5 63t-171.5 171t-63 235t63 235t171.5 171t235.5 63zM469 1493q127 0 235.5 -63t171.5 -171t63 -235t-63 -235t-171.5 -171t-235.5 -63t-235 63t-171 171t-63 235t63 235t171 171t235 63z
" />
<glyph unicode="&#xf641;" horiz-adv-x="2048" d="M1749 2048q124 0 211.5 -87.5t87.5 -211.5v-1450q0 -124 -87.5 -211.5t-211.5 -87.5h-1450q-124 0 -211.5 87.5t-87.5 211.5v1450q0 124 87.5 211.5t211.5 87.5h1450zM1835 1536v256q0 18 -12.5 30.5t-30.5 12.5h-256q-18 0 -30.5 -12.5t-12.5 -30.5v-256
q0 -18 12.5 -30.5t30.5 -12.5h256q18 0 30.5 12.5t12.5 30.5zM1024 1408q-159 0 -271.5 -112.5t-112.5 -271.5t112.5 -271.5t271.5 -112.5t271.5 112.5t112.5 271.5t-112.5 271.5t-271.5 112.5zM1835 256v896h-227q13 -59 13 -128q0 -162 -80 -299.5t-217.5 -217.5
t-299.5 -80t-299.5 80t-217.5 217.5t-80 299.5q0 69 13 128h-227v-896q0 -18 12.5 -30.5t30.5 -12.5h1536q18 0 30.5 12.5t12.5 30.5z" />
<glyph unicode="&#xf642;" horiz-adv-x="2048" d="M1025 825q-121 -127 -169 -168q-146 -127 -302 -145q-31 -4 -64 -4q-219 0 -354.5 146t-135.5 371q0 143 55.5 259t165.5 186t256 70q72 0 139 -19t118 -47t106.5 -76t94 -89.5t90.5 -103.5q48 58 87.5 100.5t94 89.5t106.5 76.5t118.5 49t135.5 19.5q222 0 351.5 -144
t129.5 -366q0 -143 -58.5 -261t-170 -189.5t-255.5 -71.5q-81 0 -158 25.5t-145 72.5t-123 99t-113 120zM264 1019q0 -102 60 -165.5t162 -63.5q92 0 191.5 67.5t178.5 160.5q-42 46 -79.5 81t-89 75.5t-106 63t-104.5 22.5q-93 0 -153 -72t-60 -169zM1194 1018
q85 -101 176.5 -164.5t200.5 -63.5q100 0 157.5 66t57.5 167q0 100 -61.5 168.5t-162.5 68.5q-52 0 -103.5 -21.5t-105.5 -66.5t-81.5 -72.5t-77.5 -81.5z" />
<glyph unicode="&#xf643;" horiz-adv-x="2048" d="M863 1911q0 67 47 114t114 47t114 -47t47 -114t-47 -114.5t-114 -47.5t-114 47.5t-47 114.5zM581 1628q67 0 114 -47t47 -114t-47 -114t-114 -47t-114 47t-47 114t47 114t114 47zM1306 1467q0 67 47 114t114 47t114 -47t47 -114t-47 -114t-114 -47t-114 47t-47 114z
M137 1185q67 0 114.5 -47t47.5 -114t-47.5 -114t-114.5 -47t-114 47t-47 114t47 114t114 47zM1749 1024q0 67 47.5 114t114.5 47t114 -47t47 -114t-47 -114t-114 -47t-114.5 47t-47.5 114zM1024 1185q67 0 114 -47t47 -114t-47 -114t-114 -47t-114 47t-47 114t47 114t114 47
zM581 742q67 0 114 -47t47 -114t-47 -114t-114 -47t-114 47t-47 114t47 114t114 47zM1467 742q67 0 114 -47t47 -114t-47 -114t-114 -47t-114 47t-47 114t47 114t114 47zM1024 299q67 0 114 -47.5t47 -114.5t-47 -114t-114 -47t-114 47t-47 114t47 114.5t114 47.5z" />
<glyph unicode="&#xf650;" horiz-adv-x="2048" d="M1071 2048q164 0 305.5 -56t236.5 -149.5t149 -215.5t54 -252q0 -229 -79 -412.5t-224 -288.5t-330 -105q-94 0 -175.5 42t-113.5 102q-67 -270 -83 -322q-22 -83 -75.5 -179t-85.5 -140t-50 -65q-8 -9 -17.5 -6.5t-11.5 11.5q0 1 -3.5 28t-6.5 56.5t-5 77t-1.5 91.5
t5.5 97t16 98l149 640q-35 76 -35 187q0 131 65 217.5t160 86.5q77 0 118 -49.5t41 -126.5q0 -47 -17.5 -115t-46 -158.5t-41.5 -143.5q-21 -93 36.5 -160.5t151.5 -67.5q109 0 194.5 86t131.5 228t46 312q0 200 -129 325.5t-359 125.5q-130 0 -241 -46t-184.5 -124
t-114.5 -179.5t-41 -212.5q0 -138 78 -233q16 -20 19 -31t-2 -33q-3 -16 -24 -94q-5 -23 -21 -31t-38 0q-118 50 -179 171t-61 279q0 102 33 204.5t102 198.5t166 169.5t236.5 118t301.5 44.5z" />
<glyph unicode="&#xf653;" horiz-adv-x="2048" d="M1446 1977l602 -394l-417 -334l-607 375zM0 1583l602 394l422 -353l-607 -375zM602 524l-602 391l417 334l607 -374zM2048 915l-602 -391l-422 351l607 374zM1628 434l-604 -363l-602 363v123l185 -118l417 346l420 -346l184 118v-123z" />
<glyph unicode="&#xf654;" horiz-adv-x="2048" d="M2038 70q10 -13 9.5 -29.5t-11.5 -28.5q-14 -12 -31 -12q-16 0 -27 10l-838 686l-384 -385q-14 -12 -31 -12q-11 0 -22 6q-28 18 -18 51l111 315l-626 731l-49 -49q-19 -21 -50 -21q-29 0 -50 21t-21 50.5t21 49.5l574 574q20 21 49.5 21t50.5 -21t21 -50.5t-21 -49.5
l-49 -49l731 -626l315 111q33 10 51 -18q17 -28 -6 -53l-385 -384z" />
<glyph unicode="&#xf655;" horiz-adv-x="2048" d="M1024 1024v1024h1024v-1024h-1024zM0 0v1024h1024v-1024h-1024z" />
<glyph unicode="&#xf656;" horiz-adv-x="2048" d="M1980 1043q68 -68 68 -164.5t-68 -164.5l-526 -526q-25 -25 -67 -42.5t-77 -17.5h-572q-35 0 -77 17.5t-67 42.5l-526 526q-68 68 -68 164.5t68 164.5l792 792q68 67 164 67t164 -67zM572 797l580 579q12 13 12 30.5t-12 29.5l-106 106q-13 13 -30.5 13t-29.5 -13
l-628 -627q-12 -13 -12 -30t12 -30l58 -58q12 -10 24 -10h108q14 0 24 10zM1188 882q13 12 13 29.5t-13 29.5l-106 107q-12 12 -29.5 12t-30.5 -12l-398 -399q-13 -12 -13 -29.5t13 -29.5l58 -59q12 -10 24 -10h108q14 0 24 10zM1142 344q12 12 12 29.5t-12 30.5l-106 106
q-13 12 -30.5 12t-29.5 -12l-106 -106q-13 -13 -13 -30.5t13 -29.5l58 -58q8 -10 24 -10h108q14 0 24 10z" />
<glyph unicode="&#xf660;" horiz-adv-x="2048" d="M1707 1785q-207 -238 -541 -372q-172 322 -398 602q130 33 256 33q194 0 369.5 -69t313.5 -194zM595 1953q231 -280 403 -597q-401 -118 -977 -128q48 240 200.5 431.5t373.5 293.5zM1816 1673q110 -133 170.5 -298.5t61.5 -345.5q-384 86 -716 31q-28 72 -95 215
q352 141 579 398zM1081 996q-487 -173 -811 -667q-128 140 -199 318.5t-71 376.5v47q642 12 1069 145q47 -93 90 -197q-52 -14 -78 -23zM1389 910q308 45 647 -40q-32 -216 -150 -398t-298 -301q-73 401 -199 739zM1216 875q138 -366 211 -792q-190 -83 -403 -83
q-176 0 -339.5 57.5t-295.5 162.5q326 515 827 655z" />
<glyph unicode="&#xf661;" horiz-adv-x="2048" d="M853 1071q8 -2 21.5 -7t47.5 -27.5t59.5 -52.5t47 -87t21.5 -127q0 -77 -24 -143t-76 -122t-147.5 -88.5t-226.5 -32.5h-576v1280h619q179 0 285 -86.5t106 -245.5q0 -50 -12.5 -93t-27 -67.5t-40.5 -47.5t-37.5 -30.5t-32.5 -18.5q-5 -3 -7 -4zM1877 1621v-128h-554v128
h554zM294 1441v-282h273q187 0 187 145q0 79 -52.5 108t-168.5 29h-239zM2048 844v-57h-668q1 -107 66.5 -167.5t160.5 -60.5q39 0 72.5 11t53 26.5t33 30.5t18.5 26l6 11h246q-30 -134 -149.5 -216.5t-286.5 -82.5q-208 0 -335 125.5t-127 353.5q0 122 34.5 217t96.5 154.5
t144 90.5t180 31q219 0 337 -130t118 -363zM1384 946h415q0 83 -58 138.5t-148 55.5q-92 0 -145.5 -55t-63.5 -139zM567 607q118 0 165.5 47.5t47.5 134.5q0 159 -209 159h-277v-341h273z" />
<glyph unicode="&#xf670;" horiz-adv-x="2048" d="M1899 1413q149 -189 149 -429q0 -178 -45.5 -315t-130 -230.5t-212 -153.5t-283.5 -87t-353 -27q-247 0 -431.5 43t-319.5 137.5t-204 252t-69 377.5q0 245 149 429q-53 285 22 467q242 -19 445 -180q195 52 408 52q214 0 405 -52q210 161 448 180q75 -182 22 -464z
M1024 299q754 0 754 426q0 85 -26.5 152t-66.5 105.5t-92 63.5t-97 33.5t-88 8.5q-48 0 -144 -10.5t-240 -10.5t-240 10.5t-144 10.5q-43 0 -88 -8.5t-97 -33.5t-92 -63.5t-66.5 -105.5t-26.5 -152q0 -426 754 -426zM704 896q107 0 107 -192t-107 -192t-107 192t107 192z
M1344 896q107 0 107 -192t-107 -192t-107 192t107 192z" />
<glyph unicode="&#xf672;" horiz-adv-x="2048" d="M1010 1982l182 182l723 -725l-180 -180zM671 1417l106 233l930 -432l-109 -232zM531 863l43 253l1009 -177l-45 -254zM1664 768h256v-768h-1792v768h256v-512h1280v512zM512 384v256h1024v-256h-1024z" />
<glyph unicode="&#xf673;" horiz-adv-x="2048" d="M1643 2048q114 0 195.5 -81.5t81.5 -195.5v-96h-1749v96q0 114 81 195.5t196 81.5h1195zM171 1568h1749v-363h-1749v363zM171 1099h1749v-363h-1749v363zM171 629h1749v-96q0 -114 -81.5 -195.5t-195.5 -81.5h-107l-384 -384v384h-704q-115 0 -196 81.5t-81 195.5v96z
" />
<glyph unicode="&#xf674;" horiz-adv-x="2048" d="M1024 581q-156 0 -295.5 26.5t-231.5 67.5t-148 87.5t-63 88.5q0 -2 -37 215.5t-74.5 443t-37.5 244.5q0 80 119 148t323.5 107t444.5 39t444.5 -39t323.5 -107t119 -148q0 -19 -37.5 -245t-74.5 -442l-37 -216q-7 -42 -63 -88.5t-148 -87.5t-231.5 -67.5t-295.5 -26.5z
M1024 1663q235 -1 401.5 34.5t166.5 85.5t-166.5 85.5t-401.5 35.5q-235 1 -401.5 -34t-166.5 -85t166.5 -86t401.5 -36zM1024 779q117 0 199.5 82.5t82.5 199.5q0 116 -82.5 199t-199.5 83t-199.5 -83t-82.5 -199q0 -117 82.5 -199.5t199.5 -82.5zM1024 1202q58 0 99.5 -41
t41.5 -100t-41.5 -100.5t-99.5 -41.5t-100 41.5t-42 100.5q0 58 41.5 99.5t100.5 41.5zM1024 0q-236 0 -409.5 67t-195.5 167q-4 16 -63 330q-1 3 -1 8q0 16 9 25t22 9q6 0 12.5 -2t9.5 -4l3 -3q9 -7 26 -18.5t76 -41.5t125 -53t170.5 -41.5t215.5 -18.5t214.5 18t173 43
t122.5 50.5t78 43.5l25 18q11 9 25 9q13 0 22 -9t9 -25q0 -5 -1 -8q-59 -314 -63 -330q-22 -100 -195.5 -167t-409.5 -67z" />
<glyph unicode="&#xf675;" horiz-adv-x="2048" d="M1024 2048q209 0 398.5 -81t326.5 -218t218 -326.5t81 -398.5t-81 -398.5t-218 -326.5t-326.5 -218t-398.5 -81t-398.5 81t-326.5 218t-218 326.5t-81 398.5t81 398.5t218 326.5t326.5 218t398.5 81zM1024 168q174 0 332.5 68t273 182.5t182.5 273t68 332.5t-68 332.5
t-182.5 273t-273 182.5t-332.5 68t-332.5 -68t-273 -182.5t-182.5 -273t-68 -332.5t68 -332.5t182.5 -273t273 -182.5t332.5 -68zM1024 391q-16 0 -30 9l-579 386h-1l-2 2l-3 3l-1 1q-2 0 -2 1t-4 5q-2 2 -2 4l-2 2l-1 2l-1 2l-1 2q-1 2 -1 4q-1 1 -1 3q-1 2 -1 5q-1 1 -1 2
v400l1 2q0 3 1 5q0 2 1 3q0 2 1 4q1 1 1 2t1 2l1 2l2 2q0 2 6 9q0 1 1 1t2 1l3 3l2 2h1l579 386q30 20 60 0l579 -386h1l2 -2l3 -3l1 -1q2 0 2 -1t4 -5q2 -2 2 -4l2 -2l1 -2q1 -1 1 -2l1 -2q1 -2 1 -4q1 -1 1 -3q1 -2 1 -5q1 -1 1 -2v-400l-1 -2q0 -3 -1 -5q0 -2 -1 -3
q0 -2 -1 -4q-1 -1 -1 -2l-1 -2l-1 -2l-2 -2q0 -2 -6 -9q0 -1 -1 -1t-2 -1l-3 -3l-2 -2h-1l-579 -386q-14 -9 -30 -9zM1078 1501v-254l236 -158l191 128zM970 1501l-427 -284l191 -128l236 158v254zM1024 895l192 129l-192 129l-192 -129zM1548 933v182l-136 -91zM500 1115
v-182l136 91zM1078 547l427 284l-191 128l-236 -158v-254zM543 831l427 -284v254l-236 158z" />
<glyph unicode="&#xf676;" horiz-adv-x="2048" d="M1828 1091q115 -47 186 -150t71 -230q0 -170 -122.5 -290.5t-295.5 -120.5h-1283q-175 3 -298 126t-123 296q0 114 57 209.5t153 152.5q-14 42 -14 85q0 119 85.5 203t206.5 84q97 0 178 -60q77 159 230.5 256.5t338.5 97.5q129 0 246 -49t201.5 -132.5t134.5 -198.5
t50 -241q0 -7 -1 -19t-1 -19zM448 815q0 -121 84.5 -197t218.5 -76q73 0 131.5 23.5t116.5 78.5l-95 111q-68 -67 -148 -67q-59 0 -98 37t-39 89q0 53 39.5 89t95.5 36q50 0 105 -33t98 -92l97 -113q126 -160 308 -160q128 0 213.5 77t85.5 195q0 120 -84.5 196t-217.5 76
q-77 0 -136 -23t-114 -78l96 -112q68 67 148 67q63 0 100 -38t37 -85q0 -56 -38 -92t-98 -36q-104 0 -202 126l-97 113q-129 158 -305 158q-131 0 -216.5 -76t-85.5 -194z" />
<glyph unicode="&#xf680;" horiz-adv-x="2048" d="M738 958q-28 0 -50.5 -19t-26.5 -47l-95 -592h-391q-19 0 -31 15t-9 32l262 1635q5 28 27 47t50 19h610q278 0 421 -106t143 -301q0 -48 -7.5 -101t-28.5 -121t-53.5 -130.5t-88 -124t-127 -106.5t-175.5 -72.5t-228 -27.5h-202zM1754 1453q160 -86 160 -290
q0 -44 -5 -90.5t-21.5 -109.5t-43.5 -118.5t-76.5 -112.5t-113.5 -97.5t-161 -66t-214 -25.5h-42q-29 0 -51 -19t-26 -47l-66 -411q-4 -28 -26.5 -47t-50.5 -19h-322q-19 0 -31 15t-9 32l126 783h159q150 0 277.5 37t216 97t156 142.5t106 168t58.5 178.5z" />
<glyph unicode="&#xf681;" horiz-adv-x="2048" d="M1849 567q83 -103 69 -236.5t-117 -216.5q-102 -81 -230.5 -69.5t-214.5 107.5l-460 559v-391q0 -133 -94 -226.5t-226 -93.5q-134 0 -227 93t-93 227v1408q0 132 93.5 226t226.5 94q131 0 225.5 -94.5t94.5 -225.5v-344l389 517q78 105 208 124.5t237 -60.5
q105 -78 124.5 -208t-60.5 -238l-386 -452z" />
<glyph unicode="&#xf682;" horiz-adv-x="2048" d="M1800 609h105l-74 -609q-748 14 -1251 14q-262 0 -495 -14v121q97 11 152 23t85.5 34.5t39 48t10.5 72.5q12 267 12 723q0 416 -14 730q-2 48 -10.5 73t-38 47t-84.5 34t-152 23v121q384 -19 905 -19q212 0 311.5 1t235 8t270.5 22l-33 -588h-111q-35 168 -72 259
t-85 128.5t-121 37.5h-637q-27 0 -37.5 -10t-10.5 -38v-763h123q82 0 118.5 -0.5t93 3t76 3.5t55.5 11.5t44 15t29 25t23.5 32t14.5 46t15 56t12 72.5q6 36 10 56h114q-20 -293 -20 -384q0 -88 13 -365h-114q-4 18 -10 51q-24 128 -43 165q-27 52 -95 69q-64 16 -288 16h-55
h-116v-626q0 -185 190 -185h450q63 0 103 4.5t83 21t73.5 46t65 81.5t66 126t69.5 181z" />
<glyph unicode="&#xf683;" horiz-adv-x="2048" d="M1294 0l-1175 220l160 1236q2 19 11 28t32 17l205 65q30 129 79.5 229.5t107 158t116 86.5t115.5 29q76 0 119 -62q11 1 21 1q71 0 123.5 -56.5t82.5 -148.5l63 19q11 3 19 3q17 0 26 -8l122 -122l164 -12q17 -1 20 -17l225 -1529zM607 1590l163 51q54 271 217 344
q-20 14 -44 14q-40 0 -85 -23t-91.5 -69.5t-89 -128.5t-70.5 -188zM1127 1752l99 30q-20 65 -52 108t-73 46q26 -80 26 -184zM852 1666l204 64q0 125 -26 193q-62 -26 -109 -95t-69 -162zM995 647q0 69 -36.5 133.5t-103.5 113.5q-14 10 -49 34.5t-48 35.5t-27 31.5
t-14 42.5q0 45 33 71.5t102 26.5q64 0 147 -38l79 234q-64 30 -161 30q-96 0 -176 -31t-132 -83t-80 -120t-28 -143q0 -139 137 -241q52 -40 71 -69t19 -64q0 -37 -22 -58.5t-57 -21.5q-81 0 -198 90l-53 -177q51 -58 131.5 -92t167.5 -34q134 0 216 89.5t82 239.5z" />
<glyph unicode="&#xf690;" horiz-adv-x="2048" d="M1629 2048q117 0 156 -65t12 -196l-194 -972q-7 -26 -11 -40t-17.5 -40t-30.5 -40t-48 -26t-71 -12h-333q-10 0 -13.5 -1.5t-13.5 -12.5l-525 -607q-18 -21 -46 -29.5t-49.5 -6.5t-35.5 8q-68 28 -68 120v1735q0 30 10 60t31 59t61 47.5t93 18.5h1093zM1564 1752
q6 29 -11.5 49.5t-42.5 20.5h-877q-28 0 -47 -21t-19 -45v-1354q0 -3 2 -4t4 2q323 388 359 433q27 33 46 42t60 9h295q27 0 45 17.5t22 36.5q1 5 11.5 58.5t20.5 107t14 69.5q5 27 -14.5 50t-45.5 23h-361q-36 0 -59.5 23t-23.5 59v52q0 36 23.5 58t59.5 22h425q22 0 43 17
t25 36z" />
<glyph unicode="&#xf691;" horiz-adv-x="2048" d="M1031 1291q0 -132 -90 -132q-52 0 -105 71l-396 540q-45 62 -45 104q0 45 87 78l362 134q57 21 79 21q47 0 75.5 -42.5t28.5 -126.5zM1262 956q-35 0 -54.5 18.5t-19.5 51.5q0 29 23 63l271 428q13 19 19.5 27t21 17t31.5 9q22 0 38 -11t42 -42l190 -224q29 -32 40 -53.5
t11 -50.5q0 -33 -27.5 -55.5t-89.5 -41.5l-422 -123q-45 -13 -74 -13zM794 961q33 -17 49 -37t16 -51q0 -74 -83 -93l-451 -100q-73 -16 -106 -16q-32 0 -41.5 26t-5.5 83l26 329q9 99 82 99q38 0 100 -31zM1203 713q0 28 21 50t52 22q21 0 60 -12l470 -151q37 -11 54 -26.5
t17 -39.5q0 -35 -26 -72l-193 -277q-35 -51 -87 -51q-30 0 -51.5 19t-52.5 69l-249 417q-15 25 -15 52zM956 686q35 0 55.5 -22.5t19.5 -54.5l-8 -520q0 -47 -16.5 -68t-55.5 -21q-26 0 -74 15l-287 91q-44 14 -63.5 34t-19.5 54q0 38 35 78l335 369q42 45 79 45z" />
<glyph unicode="&#xf692;" horiz-adv-x="2048" d="M1507 1884q0 -58 -18.5 -116.5t-58.5 -120t-113 -120.5t-172 -107q-58 127 -58 277q0 156 85.5 267.5t200.5 111.5q64 0 99 -54.5t35 -137.5zM1000 1326q-278 -140 -529 -140q-124 0 -232 42.5t-177 109t-108 145t-39 153.5q0 118 103 196.5t263 78.5q220 0 417.5 -158.5
t301.5 -426.5zM876 779q0 187 107.5 320.5t302.5 193.5q-45 -74 -45 -220q0 -158 45 -319.5t117 -288t163 -218t181 -122.5q-50 -46 -143 -82t-168 -36q-106 0 -199.5 51.5t-158 134.5t-111.5 185.5t-69 205.5t-22 195zM1606 1288q43 0 99 -27t116 -82.5t111 -129t83.5 -177
t32.5 -215.5q0 -94 -17.5 -170.5t-61.5 -130t-109 -53.5q-58 0 -130.5 67t-135.5 171t-106.5 245t-43.5 273q0 111 45 170t117 59zM457 180q0 36 77.5 221t162.5 327q7 -228 90 -423t212 -333q-104 18 -240 58t-212 73q-52 22 -71 39.5t-19 37.5z" />
<glyph unicode="&#xf6a0;" horiz-adv-x="2048" d="M1951 870q97 -143 97 -315q0 -150 -74.5 -278t-202.5 -202.5t-278 -74.5q-172 0 -315 97q-86 -12 -154 -12q-191 0 -365 74.5t-299.5 200t-200 299.5t-74.5 365q0 68 12 154q-97 143 -97 315q0 150 74.5 278t202.5 202.5t278 74.5q172 0 315 -97q86 12 154 12
q191 0 365 -74.5t299.5 -200t200 -299.5t74.5 -365q0 -68 -12 -154zM1043 384q138 0 256 46t194 141t76 221q0 267 -426 362l-143 31q-39 9 -59.5 14.5t-48.5 16t-41 21.5t-23 28.5t-10 40.5q0 54 52 80.5t145 26.5q60 0 106 -16t74 -39.5t52.5 -46.5t54.5 -39t66 -16
q63 0 102.5 43.5t39.5 106.5q0 75 -77 135.5t-195.5 91.5t-249.5 31q-93 0 -179 -21t-162 -64t-122 -119t-46 -175q0 -83 26 -145.5t77 -103.5t109 -66t139 -46l201 -47q113 -29 142 -44q55 -29 55 -89q0 -52 -55 -87.5t-144 -35.5q-59 0 -107.5 15.5t-79 39t-59.5 51
t-51 51t-52 39t-64 15.5q-67 0 -102 -41t-35 -101q0 -83 76 -153.5t206 -111.5t282 -41z" />
<glyph unicode="&#xf6a2;" horiz-adv-x="2048" d="M1580 600q18 44 23 87t-2 48q-2 3 -5 6.5t-9 7t-9.5 6t-14 7.5t-15.5 8q-174 93 -191 100q-18 10 -34.5 8.5t-30.5 -20.5q-33 -46 -95 -108q-23 -26 -62 -5q-3 2 -23 11t-38.5 19.5t-45.5 27t-57 40.5t-60 52q-91 87 -151 204q-10 12 -6.5 25t7 18t13.5 14q8 8 24.5 26.5
t20.5 22.5q11 12 30 46q13 23 0 50q-3 7 -18 47t-34 93t-28 75q-5 12 -9.5 21t-10 14.5t-9 8.5t-9.5 4.5t-8.5 2t-8.5 0t-7 -0.5q-8 0 -26.5 2t-28.5 3q-43 2 -77 -33l-5 -5q-25 -25 -42 -45t-38.5 -72t-23.5 -112q-5 -131 105 -300l15 -24q15 -23 35 -51.5t51 -69t70 -81.5
t84 -82t101.5 -78t114.5 -63q82 -36 139 -57t90.5 -27.5t49.5 -7.5t34.5 3.5t26.5 4.5q45 3 112 43t86 86zM1024 2048q209 0 398.5 -81t326.5 -218t218 -326.5t81 -398.5t-81 -398.5t-218 -326.5t-326.5 -218t-398.5 -81q-285 0 -527 146l-487 -156l158 471
q-168 257 -168 563q0 209 81 398.5t218 326.5t326.5 218t398.5 81z" />
<glyph unicode="&#xf6b0;" horiz-adv-x="2048" d="M2034 1470q14 -19 14 -43q-24 -145 -175 -242q-57 -37 -131 -64q7 -43 7 -97q0 -174 -69 -332t-186 -272t-279 -181.5t-340 -67.5t-340 67.5t-279.5 181.5t-186.5 272t-69 332t69 332t186.5 272t279.5 181.5t340 67.5q129 0 256 -35v-505q-84 50 -192 50
q-107 0 -199 -42.5t-149 -107.5t-89.5 -138t-32.5 -139q0 -92 50.5 -162t127 -103.5t164.5 -33.5q127 0 239.5 58t181.5 162t69 228v662q24 -12 176 -100q73 -45 118.5 -70t113.5 -55t137 -43.5t145 -13.5q22 0 43 -19z" />
<glyph unicode="&#xf6b1;" horiz-adv-x="2048" d="M1024 2048q209 0 398.5 -81t326.5 -218t218 -326.5t81 -398.5t-81 -398.5t-218 -326.5t-326.5 -218t-398.5 -81t-398.5 81t-326.5 218t-218 326.5t-81 398.5t81 398.5t218 326.5t326.5 218t398.5 81zM1678 1126q38 0 67 28t29 68q0 56 -45 82q-338 202 -872 202
q-257 0 -473 -64q-30 -9 -49 -34.5t-19 -56.5q0 -38 28 -67.5t67 -29.5q13 0 30 5q207 55 421 55q471 0 769 -175q22 -13 47 -13zM1592 961q-320 193 -745 193q-218 0 -406 -59q-25 -7 -40 -28t-15 -46q0 -34 23.5 -58t55.5 -24q9 0 25 4q166 50 355 50q381 0 665 -170
q22 -12 42 -12q34 0 56.5 23t22.5 58q0 43 -39 69zM1472 659q-258 161 -607 161q-167 0 -387 -47q-23 -5 -36.5 -22.5t-13.5 -39.5q0 -25 19.5 -44.5t44.5 -19.5q5 0 15 2q206 46 382 43q291 -5 515 -141q17 -11 35 -11q25 0 44 17.5t20 42.5q1 38 -31 59z" />
<glyph unicode="&#xf6b2;" horiz-adv-x="2048" d="M1138 1045q17 -56 30.5 -94.5t34.5 -84.5t43 -76.5t53.5 -61t69 -48.5t87 -29t108.5 -11q245 0 245 128q0 41 -20 69.5t-54.5 45t-79 28.5t-93 22.5t-97.5 23.5t-93.5 36t-79 55t-54.5 85t-20 123q0 171 115 254t303 83q373 0 403 -299l-235 -28q-9 74 -52.5 108
t-130.5 34q-79 0 -123.5 -33.5t-44.5 -92.5q0 -42 20.5 -71t55 -45t79 -27t93.5 -21t98.5 -22.5t94 -36.5t79 -57.5t55 -90t20.5 -131.5q0 -76 -26.5 -133.5t-85 -101.5t-159 -67t-241.5 -23q-74 0 -140 10.5t-116 27.5t-94.5 43.5t-75.5 53t-59 62.5t-46 66t-35 69
t-26.5 65t-21.5 61q-5 14 -7 21q-9 28 -24 75t-23.5 73.5t-23 66.5t-25.5 63t-28.5 54.5t-34.5 49t-40.5 38t-49.5 30.5t-59 17t-71 7q-133 0 -211 -103.5t-78 -280.5q0 -181 78.5 -282.5t186.5 -101.5q56 0 109 14.5t88.5 35.5t63.5 42t41 36l13 14l76 -204
q-6 -5 -16.5 -13.5t-47.5 -29.5t-79 -37t-109 -29.5t-139 -13.5q-81 0 -152 15.5t-138.5 54.5t-115.5 99.5t-77 157.5t-29 221q0 156 42 273t116.5 184.5t167 100t203.5 32.5q85 0 154 -12t122.5 -33t97.5 -58.5t76 -78t61.5 -102t51 -121t46.5 -143.5z" />
<glyph unicode="&#xf6b3;" horiz-adv-x="2048" d="M968 1651q108 43 184 43q133 0 249 -65.5t188 -176.5t83 -243q55 23 114 23q124 0 210.5 -86.5t86.5 -209.5t-86.5 -209.5t-210.5 -86.5h-814q-14 1 -23 11.5t-10 24.5v939q1 25 29 36zM754 669q-4 -17 -17.5 -27t-28.5 -10q-16 0 -29.5 10t-17.5 27q-19 70 -31 162.5
t-12 131.5q0 49 15.5 265t31.5 301q2 14 15 24.5t28 10.5q14 0 27 -10.5t16 -24.5q15 -85 30.5 -302t15.5 -264q0 -39 -12 -131.5t-31 -162.5zM448 673q-14 -42 -49 -42q-37 0 -49 42q-15 51 -28 150t-13 133q0 41 13.5 178t31.5 221q4 15 17 24.5t28 9.5q14 0 27 -9.5
t17 -24.5q18 -84 31.5 -221t13.5 -178q0 -33 -12.5 -132.5t-27.5 -150.5zM42 1147q10 34 48 34q37 0 47 -34q18 -53 30 -115.5t12 -86.5t-12 -86.5t-30 -115.5q-10 -33 -47 -33q-38 0 -48 33q-18 53 -30 115.5t-12 86.5t12 86.5t30 115.5z" />
<glyph unicode="&#xf6f1;" horiz-adv-x="2048" d="M1067 1067v981h981v-981h-981zM0 1067v981h981v-981h-981zM1067 0v981h981v-981h-981zM0 0v981h981v-981h-981z" />
<glyph unicode="&#xf6f2;" horiz-adv-x="2048" d="M853 1821l1110 227v-967l-1110 -11v751zM85 1664l683 140v-735l-683 -7v602zM85 384v602l683 -7v-735zM853 227v751l1110 -11v-967z" />
<glyph unicode="&#xf6f3;" horiz-adv-x="2048" d="M1314 1978q140 -72 223.5 -201.5t83.5 -283.5h-1194q0 154 83.5 283.5t223.5 201.5l-112 187q-11 18 7 29t29 -7l115 -190q117 51 251 51t251 -51l115 190q11 18 29 7t7 -29zM1301 1707q27 0 45.5 18.5t18.5 45.5q0 26 -18.5 45t-45.5 19q-26 0 -45 -19t-19 -45
q0 -27 19 -45.5t45 -18.5zM747 1707q26 0 45 18.5t19 45.5q0 26 -19 45t-45 19q-27 0 -45.5 -19t-18.5 -45q0 -27 18.5 -45.5t45.5 -18.5zM1792 1472q53 0 90.5 -37.5t37.5 -90.5v-576q0 -53 -37.5 -90.5t-90.5 -37.5t-90.5 37.5t-37.5 90.5v576q0 53 37.5 90.5t90.5 37.5z
M256 1472q53 0 90.5 -37.5t37.5 -90.5v-576q0 -53 -37.5 -90.5t-90.5 -37.5t-90.5 37.5t-37.5 90.5v576q0 53 37.5 90.5t90.5 37.5zM427 1451h1194v-896q0 -53 -37.5 -90.5t-90.5 -37.5h-128v-299q0 -53 -37.5 -90.5t-90.5 -37.5t-90.5 37.5t-37.5 90.5v299h-170v-299
q0 -53 -37.5 -90.5t-90.5 -37.5t-90.5 37.5t-37.5 90.5v299h-128q-53 0 -90.5 37.5t-37.5 90.5v896z" />
<glyph unicode="&#xf6f4;" horiz-adv-x="2048" d="M1164 1749q63 0 108 -14t67.5 -38t32.5 -49t10 -54q0 -39 -13.5 -72.5t-44.5 -63.5t-88.5 -47.5t-136.5 -17.5h-282l77 356h270zM435 1749q63 0 107.5 -14t67.5 -38t32.5 -49t9.5 -54q0 -39 -13.5 -72.5t-44.5 -63.5t-88.5 -47.5t-136.5 -17.5h-282l76 356h272z
M1830 1431q63 0 108 -14t67.5 -38.5t32.5 -49.5t10 -54q0 -84 -66 -142.5t-217 -58.5h-283l77 357h271zM1067 1213q63 0 108 -14t67.5 -38t32.5 -49t10 -54q0 -39 -14 -72.5t-44.5 -63.5t-88.5 -47.5t-137 -17.5h-282l77 356h271zM337 1213q63 0 108 -14t67.5 -38t32.5 -49
t10 -54q0 -39 -14 -72.5t-44.5 -63.5t-88.5 -47.5t-137 -17.5h-282l77 356h271zM1725 872q63 0 108 -14t67.5 -38.5t32.5 -49.5t10 -53q0 -39 -14 -72.5t-44.5 -63.5t-88.5 -47.5t-137 -17.5h-282l77 356h271zM962 655q63 0 108 -14t67.5 -38.5t32 -49.5t9.5 -53
q0 -39 -13.5 -72.5t-44 -63.5t-88 -47.5t-136.5 -17.5h-283l77 356h271z" />
<glyph unicode="&#xf6fa;" horiz-adv-x="2048" d="M1024 2048q209 0 398.5 -81t326.5 -218t218 -326.5t81 -398.5t-81 -398.5t-218 -326.5t-326.5 -218t-398.5 -81t-398.5 81t-326.5 218t-218 326.5t-81 398.5t81 398.5t218 326.5t326.5 218t398.5 81zM1024 111q186 0 355 72.5t291 194.5t194.5 291t72.5 355t-72.5 355
t-194.5 291t-291 194.5t-355 72.5t-355 -72.5t-291 -194.5t-194.5 -291t-72.5 -355t72.5 -355t194.5 -291t291 -194.5t355 -72.5zM1293 956l-334 571q-9 15 -4.5 32.5t19.5 25.5l56 33q15 9 32 4.5t26 -19.5l334 -571zM825 1347l42 72q8 15 25.5 19.5t32.5 -4.5l55 -32
q16 -8 20.5 -25.5t-4.5 -32.5l-41 -72zM933 1235l-290 -503l-130 75l291 503zM384 939v149h242l-86 -149h-156zM897 1088h270l87 -149h-443zM1439 1088h225v-149h-138zM1444 995l68 -117l-129 -75l-68 117zM1552 821q55 -47 55 -145q0 -82 -20 -128q-7 -15 -23 -8
q-5 3 -9 10q-12 36 -32 56.5t-46.5 38t-40.5 33.5q-39 43 -34 87l124 72q16 -7 26 -16zM494 769l125 -73l-174 -157z" />
<glyph unicode="&#xf6fb;" horiz-adv-x="2048" d="M176 2053l1027 -1028l-1029 -1029q-46 28 -46 102v1852q0 76 48 103zM328 2021l1207 -664l-271 -272zM1982 1111q66 -36 66 -87t-66 -87l-367 -203l-291 291l289 289zM1264 965l273 -273l-1214 -668z" />
<glyph unicode="&#xf8ff;" horiz-adv-x="2048" d="M1417 2087q18 -111 -35 -227.5t-157 -192.5t-222 -72q-10 82 11.5 158.5t65 134t101 101.5t118.5 68.5t118 29.5zM660 1621q60 0 117.5 -16.5t95.5 -36t88.5 -36t98.5 -16.5q49 0 111.5 26t136.5 52.5t151 26.5q68 0 134.5 -24t112.5 -58.5t82 -69t54 -58.5l17 -24
q-10 -5 -26 -15.5t-57 -47.5t-72.5 -80t-57 -114t-25.5 -149q0 -67 16.5 -127t43 -102t58 -77t63.5 -56.5t58.5 -36.5t43.5 -21l16 -6q-5 -12 -14 -32t-39 -77.5t-61 -110t-78.5 -116.5t-93.5 -110t-103.5 -77.5t-111.5 -31.5q-49 0 -91 13.5t-69 29t-78.5 29t-118.5 13.5
q-73 0 -135.5 -21.5t-117.5 -42.5t-108 -21q-73 0 -155 59t-155 160.5t-133 225.5t-95 266t-35 270q0 131 36 241.5t92.5 182t128 122t141.5 72.5t134 22z" />
<glyph unicode="&#x1f44d;" horiz-adv-x="2048" d="M1944 917q47 -25 75.5 -70.5t28.5 -99.5q0 -67 -42.5 -120.5t-106.5 -67.5q21 -42 21 -90q0 -71 -42 -127t-107 -77q21 -42 21 -94q0 -71 -50 -121t-121 -50h-426q-53 0 -124 15.5t-120 36.5l-439 204v896q153 102 259 187t172.5 156t103 143t49.5 136t13 146
q0 53 37.5 90.5t90.5 37.5q36 0 73 -25.5t67 -69.5q74 -102 74 -246q0 -72 -20.5 -164t-40.5 -148t-22 -56q-7 -21 4 -40q13 -19 36 -19h448q80 0 136 -56t56 -136q0 -54 -29 -100.5t-75 -70.5zM341 1237v-1194q0 -18 -12.5 -30.5t-29.5 -12.5h-256q-18 0 -30.5 12.5
t-12.5 30.5v1194q0 18 12.5 30.5t30.5 12.5h256q17 0 29.5 -12.5t12.5 -30.5z" />
<glyph unicode="&#x1f4de;" horiz-adv-x="2048" d="M244 0q-12 0 -16 2q-14 6 -24 24l-202 507q-5 16 1.5 31.5t20.5 23.5l559 280q25 13 50 -8l272 -275q340 210 555 558l-272 272q-21 25 -8 50l280 559q8 14 23.5 20.5t31.5 1.5l507 -202q18 -10 21 -24q5 -7 5 -16q0 -10 -2 -17q-29 -230 -108.5 -447t-199.5 -403.5
t-280 -347t-347 -280t-403.5 -199t-446.5 -108.5q-7 -2 -17 -2z" />
<glyph unicode="&#x1f517;" horiz-adv-x="2048" d="M1884 1100l-289 -289q3 34 3 68q0 127 -45 249l151 154q87 88 87 211q0 124 -87 211t-211 87q-123 0 -211 -87l-320 -317q-88 -91 -88 -214q0 -124 88 -211q39 -39 39 -91q0 -51 -39 -89q-36 -37 -90 -37q-53 0 -90 37q-79 80 -120 182.5t-41 210.5t41 210t120 182
l318 317q80 80 181.5 122t209.5 42t210.5 -42t182.5 -122t122 -182.5t42 -210.5t-42 -209.5t-122 -181.5zM1266 481l-320 -320q-80 -80 -182 -121t-211 -41t-210.5 41t-181.5 121t-121 181.5t-41 210.5t41 211t121 182l292 291q-3 -35 -3 -68q0 -131 45 -252l-151 -151
q-87 -87 -87 -211t87 -211t211 -87t211 87l317 317q89 86 89 211t-89 211q-37 37 -37 92q0 54 37 91q38 38 92 38q53 0 91 -38q79 -80 120 -182t41 -211t-41 -211t-120 -181z" />
<glyph   />
<glyph  horiz-adv-x="682"  />
<glyph unicode=" " horiz-adv-x="512"  />
<glyph unicode="+" horiz-adv-x="1384" d="M1292 510h-515v-510h-170v510h-515v175h515v510h170v-510h515v-175z" />
<glyph unicode="-" horiz-adv-x="1975"  />
<glyph unicode="0" horiz-adv-x="1157" d="M1096 727q0 -330 -136 -527.5t-370 -197.5q-129 0 -227 58t-157 160t-89.5 230t-32.5 279q0 391 137.5 586.5t372.5 195.5q238 0 370 -194.5t132 -589.5zM907 750q0 596 -313 596q-102 0 -171.5 -70.5t-101.5 -191t-32 -285.5q0 -182 32 -321.5t102 -224.5t171 -85
q96 0 168.5 81.5t108.5 212.5t36 288z" />
<glyph unicode="5" horiz-adv-x="1141" d="M1090 494q0 -77 -21 -149t-63.5 -134.5t-103 -109.5t-145.5 -74t-184 -27q-89 0 -173 24t-156 71t-116 127.5t-44 183.5h192q15 -120 94.5 -182t207.5 -62q135 0 227 91.5t92 225.5q0 110 -46 188t-117.5 114t-160.5 36q-94 0 -169 -35.5t-107 -97.5l-160 8l109 787h766
v-181h-625l-63 -403q38 37 119.5 62.5t162.5 25.5q99 0 185.5 -30.5t153.5 -89.5t106 -154t39 -215z" />
<glyph unicode="A" horiz-adv-x="1375" d="M905 607l-218 654l-237 -654h455zM1344 0h-218l-145 429h-595l-154 -429h-204l555 1479h230z" />
<glyph unicode="B" horiz-adv-x="1375" d="M1287 443q0 -132 -64.5 -234.5t-168.5 -155.5t-227 -53h-680v1479h668q165 0 280 -99t119 -275q0 -100 -50 -187.5t-142 -121.5q117 -41 191 -133.5t74 -219.5zM1017 1062q0 122 -62.5 181t-219.5 63h-384v-455h389q139 0 206 60.5t71 150.5zM1088 417q0 66 -14 111.5
t-50.5 82.5t-105 56t-171.5 20h-396v-519h462q69 0 123 23t85.5 60.5t48 79.5t18.5 86z" />
<glyph unicode="C" horiz-adv-x="1489" d="M1403 543q-11 -96 -44.5 -183t-89 -160t-128 -126.5t-167 -83.5t-201.5 -30q-150 0 -270.5 49t-196.5 127.5t-127.5 184t-72.5 212t-21 218.5q0 116 27 225t82.5 206t135 170.5t191 118t242.5 48.5q57 0 115.5 -9t125.5 -28.5t127.5 -57t113 -89t90.5 -129.5t52 -173
h-195q-29 147 -137.5 225.5t-262.5 78.5q-105 0 -189 -31t-140.5 -84t-94 -128.5t-55 -160t-19.5 -182.5q2 -91 19 -177t53 -166t87.5 -139.5t128 -95.5t169.5 -36q193 0 310 107t146 299h196z" />
<glyph unicode="D" horiz-adv-x="1489" d="M1384 792q0 -125 -24.5 -240.5t-74 -215t-119 -173.5t-166 -117.5t-208.5 -45.5h-628v1479h621q77 0 155.5 -22t157.5 -74.5t140 -129t101.5 -196t44.5 -265.5zM1178 775q0 85 -13.5 160.5t-45.5 144t-79.5 118t-120 79t-163.5 29.5h-389v-1138h413q119 0 210.5 81
t139.5 218t48 308z" />
<glyph unicode="E" horiz-adv-x="1375" d="M1266 0h-1093v1479h1081v-180h-879v-450h810v-178h-810v-493h891v-178z" />
<glyph unicode="F" horiz-adv-x="1256" d="M1197 1299h-822v-450h725v-178h-725v-671h-202v1479h1024v-180z" />
<glyph unicode="G" horiz-adv-x="1598" d="M1446 0h-128l-47 197q-70 -98 -200 -161.5t-286 -68.5q-146 0 -262 39t-195 108.5t-131.5 168.5t-76 215t-23.5 253q0 112 26.5 219.5t83.5 205t137.5 171t197 118t254.5 45.5q113 0 217.5 -31t190.5 -90t144.5 -152t73.5 -208h-192q-27 109 -95 180t-154 99.5t-194 28.5
q-212 0 -349 -161.5t-137 -435.5q0 -295 134 -454.5t352 -159.5q173 0 310 106q91 74 125.5 158.5t38.5 225.5h-460v171h645v-787z" />
<glyph unicode="H" horiz-adv-x="1489" d="M1332 0h-201v687h-773v-687h-202v1479h202v-614h773v614h201v-1479z" />
<glyph unicode="I" horiz-adv-x="569" d="M386 0h-201v1479h201v-1479z" />
<glyph unicode="J" horiz-adv-x="1029" d="M882 398q0 -117 -33.5 -203t-93.5 -136t-134.5 -73.5t-165.5 -25.5q-93 0 -167 23t-121 60t-78 86.5t-43.5 99t-12.5 100.5v145h187v-104q0 -123 54.5 -181.5t168.5 -58.5q122 0 177.5 62t57.5 194v1093h204v-1081z" />
<glyph unicode="K" horiz-adv-x="1375" d="M1363 0h-258l-520 740l-232 -221v-519h-201v1479h201v-720l718 720h275l-616 -597z" />
<glyph unicode="L" horiz-adv-x="1147" d="M1105 0h-953v1479h201v-1301h752v-178z" />
<glyph unicode="M" horiz-adv-x="1711" d="M1567 0h-197v1242l-412 -1242h-199l-422 1240v-1240h-190v1479h287l426 -1254l422 1254h285v-1479z" />
<glyph unicode="N" horiz-adv-x="1489" d="M1332 0h-227l-754 1192v-1192h-195v1479h237l745 -1197v1197h194v-1479z" />
<glyph unicode="O" horiz-adv-x="1598" d="M1519 740q0 -56 -5.5 -112t-23.5 -134.5t-48 -146.5t-85 -138.5t-127.5 -121t-182.5 -83.5t-243 -35q-145 0 -265.5 43t-203 116.5t-140 172.5t-84 209.5t-26.5 229.5q0 124 27 236t85 209t141.5 168.5t202.5 113t263 43.5q113 0 211 -25.5t169.5 -69.5t129.5 -105
t95.5 -129.5t63 -145t36 -149.5t10.5 -146zM1318 740q0 264 -136.5 426t-377.5 166q-230 0 -372.5 -160.5t-142.5 -431.5q0 -267 138 -428t377 -165q241 0 377.5 162.5t136.5 430.5z" />
<glyph unicode="P" horiz-adv-x="1375" d="M1278 1062q0 -66 -14 -126t-47 -117t-82.5 -99t-125.5 -68.5t-170 -28.5h-464v-623h-202v1479h666q188 0 311 -109t128 -308zM1071 1062q0 244 -291 244h-405v-514h398q295 0 298 270z" />
<glyph unicode="Q" horiz-adv-x="1598" d="M1519 740q0 -358 -215 -569l201 -157l-97 -121l-228 178q-155 -102 -379 -102q-145 0 -265.5 43t-203.5 116.5t-140.5 172.5t-84 209.5t-26.5 229.5q0 124 27 236t85 209t141.5 168.5t203 113t263.5 43.5q113 0 210.5 -25.5t169.5 -69.5t130 -105t96.5 -129.5t64 -145
t36.5 -149.5t11 -146zM1313 740q0 264 -135.5 426t-376.5 166q-231 0 -372.5 -160t-141.5 -432q0 -268 137 -428.5t377 -164.5q119 0 216 47l-154 117l102 125l189 -144q159 165 159 448z" />
<glyph unicode="R" horiz-adv-x="1489" d="M1124 1052q0 112 -58.5 181t-186.5 73h-523v-502h507q112 0 186.5 69t74.5 179zM1384 0h-225q-26 57 -37.5 150t-15 186.5t-6.5 113.5q-26 178 -242 181h-502v-631h-202v1479h709q89 0 169 -24t146 -71.5t106 -128t43 -184.5q0 -230 -215 -343q79 -25 126 -87t56 -153
q6 -56 12.5 -157t14.5 -165.5t25 -106.5q18 -42 38 -59z" />
<glyph unicode="S" horiz-adv-x="1375" d="M1273 415q0 -145 -76.5 -247.5t-204.5 -150.5t-297 -48q-284 0 -438 127t-155 392h185q0 -78 24 -139t62.5 -98.5t93.5 -62.5t109.5 -35.5t118.5 -12.5q59 0 112 7.5t104 25.5t88 45.5t59.5 71t22.5 99.5q0 39 -8.5 69.5t-24.5 54t-44.5 42.5t-64 34t-88 29.5t-110.5 28
t-138 31.5q-36 8 -55 12q-67 15 -119.5 32.5t-106.5 47.5t-90 67.5t-59.5 94t-25.5 125.5q0 92 30 171.5t90 143.5t161 101t231 37q111 0 201.5 -21t148 -51t101.5 -77.5t65.5 -84.5t36 -89.5t17 -75.5t5.5 -58q1 -9 1 -12h-185q0 63 -21.5 114t-57 84.5t-85 56.5
t-100.5 33.5t-108 12.5q-51 0 -96 -6.5t-90.5 -24.5t-77.5 -46.5t-52.5 -75.5t-20.5 -108q0 -141 178 -180l422 -97q332 -74 332 -389z" />
<glyph unicode="T" horiz-adv-x="1256" d="M1230 1299h-502v-1299h-202v1299h-498v180h1202v-180z" />
<glyph unicode="U" horiz-adv-x="1489" d="M1327 486q0 -105 -35.5 -195.5t-106 -162t-187 -113.5t-268.5 -43q-282 0 -423.5 130.5t-145.5 373.5v1003h202v-965q0 -171 95 -269t272 -98q180 0 285.5 94.5t110.5 268.5v969h201v-993z" />
<glyph unicode="V" horiz-adv-x="1375" d="M1330 1479l-538 -1479h-214l-538 1479h233l419 -1263l436 1263h202z" />
<glyph unicode="W" horiz-adv-x="1941" d="M1911 1479l-392 -1479h-208l-337 1225l-346 -1225h-211l-384 1479h216l272 -1206l339 1206h216l339 -1206l273 1206h223z" />
<glyph unicode="X" horiz-adv-x="1375" d="M1332 0h-249l-396 607l-410 -607h-239l529 759l-498 720h251l375 -566l376 566h240l-496 -723z" />
<glyph unicode="Y" horiz-adv-x="1375" d="M1342 1479l-557 -889v-590h-200v590l-554 889h242l422 -711l424 711h223z" />
<glyph unicode="Z" horiz-adv-x="1256" d="M1209 0h-1162v164l906 1137h-839v178h1095v-173l-910 -1126h910v-180z" />
<glyph unicode="a" horiz-adv-x="1147" d="M787 358v194q-29 -19 -84 -34t-111.5 -23.5t-117.5 -25t-108 -37.5t-77.5 -62t-30.5 -97q0 -78 52 -118.5t140 -40.5q51 0 109 17t109.5 47t85 77.5t33.5 102.5zM801 140q-154 -166 -389 -173q-151 0 -246 89t-95 214q0 60 15.5 109t39.5 82.5t64 60.5t76.5 42.5t91 29.5
t93.5 20.5t98 16.5t91 16q82 14 117 50.5t35 79.5q0 83 -63.5 133t-185.5 50q-110 0 -176.5 -53t-70.5 -160h-168q0 147 111.5 250.5t327.5 107.5q106 0 195.5 -32.5t150.5 -106.5t61 -179v-576q0 -60 22.5 -82t96.5 4v-133q-57 -21 -119 -21q-168 0 -173 161z" />
<glyph unicode="b" horiz-adv-x="1147" d="M1088 569q3 -85 -10.5 -166.5t-48 -161.5t-88 -140t-138.5 -97t-191 -37q-104 0 -187.5 42.5t-130.5 123.5l-14 -133h-164v1479h185v-538q59 78 138.5 119t191.5 45q197 0 323.5 -149.5t133.5 -386.5zM898 538q0 198 -79 301.5t-222 103.5q-82 0 -143.5 -38.5t-95 -100.5
t-49 -128.5t-15.5 -135.5q0 -404 313 -414q140 0 215.5 112.5t75.5 299.5z" />
<glyph unicode="c" horiz-adv-x="1029" d="M991 379q-12 -111 -57 -194t-111 -129t-138 -67.5t-149 -21.5q-203 0 -340 158.5t-137 412.5q0 140 39.5 251t107 179t153.5 103.5t184 35.5q62 0 119.5 -11.5t114.5 -40t100.5 -71.5t74.5 -112t39 -156h-173q-10 106 -83.5 166.5t-184.5 60.5q-63 0 -114.5 -21t-94 -66
t-66.5 -126t-24 -192q0 -170 85 -287.5t214 -117.5q109 0 176.5 62t88.5 184h176z" />
<glyph unicode="d" horiz-adv-x="1147" d="M555 943q-143 0 -222 -103.5t-79 -301.5q0 -187 75.5 -299.5t215.5 -112.5q313 10 313 414q0 69 -15.5 135.5t-48.5 128.5t-94.5 100.5t-144.5 38.5zM540 -33q-106 0 -191 37t-138.5 97t-88 140t-48 161.5t-10.5 166.5q7 237 133.5 386.5t323.5 149.5q113 -4 191.5 -45
t138.5 -119v538h185v-1479h-164v152q-48 -82 -139.5 -133.5t-192.5 -51.5z" />
<glyph unicode="e" horiz-adv-x="1147" d="M1074 476h-804q0 -150 91.5 -246.5t226.5 -96.5q68 0 125 22t91 54.5t52.5 66.5t18.5 61h185q-30 -172 -161 -270t-321 -98q-114 0 -209 42.5t-157 116t-97 171t-37 208.5q0 270 139.5 436t365.5 166q160 0 273.5 -81.5t168 -223.5t49.5 -328zM884 623q0 144 -87 234.5
t-212 90.5q-128 0 -219 -95.5t-96 -229.5h614z" />
<glyph unicode="f" horiz-adv-x="569" d="M538 1493v-149q-31 5 -76 5q-54 0 -76.5 -25t-22.5 -84v-164h175v-163h-175v-913h-185v913h-150v163h150v199q0 98 73.5 164t191.5 66q55 0 95 -12z" />
<glyph unicode="g" horiz-adv-x="1228" d="M905 536q0 180 -82.5 283t-227.5 103q-56 0 -109 -23t-97 -67t-70.5 -116.5t-26.5 -163.5q0 -106 26.5 -189.5t71.5 -132.5t99 -74.5t113 -25.5q132 0 216 107.5t87 298.5zM1086 47q0 -262 -128 -390.5t-358 -128.5q-33 0 -66 3t-75 12.5t-79.5 24.5t-74.5 41.5t-63.5 61
t-43.5 85t-18 111.5h180q0 -80 68 -125t160 -45q150 0 233.5 83t83.5 253v64q-65 -70 -145.5 -99t-183.5 -29q-84 0 -166.5 36.5t-151 103t-112 171.5t-46.5 230q0 277 139.5 436t362.5 159q98 0 180 -42t123 -110v130h181v-1036z" />
<glyph unicode="h" horiz-adv-x="1147" d="M1012 0h-185v704q0 117 -50 178t-161 61q-61 0 -113.5 -21t-96 -62.5t-68.5 -112t-25 -162.5v-585h-185v1479h185v-547q55 85 147 128t187 47q55 0 104 -10.5t98 -38t84 -70.5t57 -112.5t22 -159.5v-716z" />
<glyph unicode="i" horiz-adv-x="460" d="M318 1271h-185v203h185v-203zM318 0h-185v1076h185v-1076z" />
<glyph unicode="j" horiz-adv-x="543" d="M405 1271h-185v208h185v-208zM405 -185q0 -106 -70 -175t-200 -69q-59 0 -92 7v157q41 -10 83 -10q51 0 72.5 29t21.5 101v1221h185v-1261z" />
<glyph unicode="k" horiz-adv-x="1029" d="M1029 0h-230l-356 526l-130 -128v-398h-185v1479h185v-860l460 457h232l-429 -412z" />
<glyph unicode="l" horiz-adv-x="460" d="M320 0h-187v1479h187v-1479z" />
<glyph unicode="m" horiz-adv-x="1711" d="M1586 0h-185v695q0 248 -199 248q-108 0 -177 -78t-74 -211v-654h-185v742q0 84 -42 142.5t-131 58.5q-53 0 -99.5 -18.5t-87 -58t-65 -112t-26.5 -169.5v-585h-185v1076h171v-152q57 89 144 135t186 46q113 0 179.5 -46t109.5 -127q46 72 131 122.5t198 50.5
q42 0 84 -8.5t89 -33.5t82 -63.5t58.5 -105t23.5 -152.5v-742z" />
<glyph unicode="n" horiz-adv-x="1147" d="M1012 0h-185v673q0 61 -10 107.5t-33 84.5t-65.5 58t-102.5 20q-130 0 -216.5 -88.5t-86.5 -240.5v-614h-185v1076h175v-156q15 24 43.5 52.5t72 60t104 52t124.5 20.5q166 0 265.5 -96t99.5 -293v-716z" />
<glyph unicode="o" horiz-adv-x="1147" d="M1081 538q0 -112 -34.5 -213t-97.5 -179.5t-159.5 -126t-213.5 -50.5q-94 0 -175 30.5t-140.5 84t-102 125t-64 155.5t-21.5 174q0 155 58 283t174 207t271 79t271.5 -79t175 -207t58.5 -283zM891 538q1 68 -16.5 136t-53.5 129.5t-100 101t-145 41.5q-80 0 -143 -39
t-98.5 -101.5t-53.5 -131t-18 -136.5q0 -81 18 -152.5t54 -130.5t98 -93t143 -34q82 0 143.5 34t97 93.5t53.5 129.5t21 153z" />
<glyph unicode="p" horiz-adv-x="1147" d="M600 133q143 0 222 103.5t79 301.5q0 187 -76 300t-216 113q-160 -6 -236.5 -114t-76.5 -301q0 -69 15.5 -135t48.5 -128.5t95 -101t145 -38.5zM614 1109q106 0 191 -37t138.5 -97t88.5 -140t48 -161.5t10 -166.5q-7 -237 -134 -386t-325 -149q-112 3 -190 44t-138 119
v-562h-187v1503h166v-152q48 82 139.5 133.5t192.5 51.5z" />
<glyph unicode="q" horiz-adv-x="1147" d="M45 507q0 85 14 166t48.5 161.5t87 140t136.5 97t190 37.5q103 0 186 -42.5t130 -123.5l16 133h166v-1503h-185v562q-62 -78 -140 -119t-189 -44q-201 0 -328 143.5t-132 391.5zM235 538q0 -198 80 -301.5t223 -103.5q66 0 119 26t86.5 67t55.5 95.5t31 107.5t9 107
q0 404 -313 415q-140 0 -215.5 -113t-75.5 -300z" />
<glyph unicode="r" horiz-adv-x="683" d="M609 913q-154 0 -250 -71.5t-96 -196.5v-645h-185v1076h178v-182q94 206 353 206v-187z" />
<glyph unicode="s" horiz-adv-x="1029" d="M960 325q0 -155 -113.5 -256.5t-310.5 -101.5q-97 0 -176 20.5t-142.5 64.5t-101.5 118.5t-45 175.5h178q0 -220 287 -220q101 0 172.5 43t71.5 125q0 44 -23 70t-102 55t-247 69q-48 12 -81.5 22.5t-78 32.5t-72 49t-47.5 71.5t-20 99.5q0 163 114.5 253.5t293.5 90.5
q99 0 175.5 -26t118.5 -63t69.5 -86.5t36 -87.5t10.5 -76h-176q0 88 -64 134t-189 46q-15 0 -30 -1t-42 -5.5t-49 -14.5t-44.5 -26t-35.5 -43t-15 -62q0 -66 62.5 -95.5t267.5 -78.5q23 -5 35 -8q55 -15 95.5 -30t83.5 -39t70 -53t45 -71.5t19 -95.5z" />
<glyph unicode="t" horiz-adv-x="569" d="M538 128v-152q-57 -12 -95 -12q-118 0 -191.5 67t-73.5 163v719h-140v163h140v304h185v-304h175v-163h-175v-681q0 -59 22.5 -85t76.5 -26q33 0 76 7z" />
<glyph unicode="u" horiz-adv-x="1147" d="M116 1076h187v-673q0 -61 10 -107.5t33 -84.5t65.5 -58t102.5 -20q129 0 216.5 89t87.5 240v614h185v-1076h-178v156q-14 -24 -43 -52.5t-72 -59.5t-104 -51.5t-125 -20.5q-166 0 -265.5 95.5t-99.5 292.5v716z" />
<glyph unicode="v" horiz-adv-x="1029" d="M988 1076l-410 -1076h-194l-391 1076h206l294 -882l301 882h194z" />
<glyph unicode="w" horiz-adv-x="1489" d="M1458 1076l-311 -1076h-189l-216 832l-216 -832h-189l-309 1076h197l204 -848l220 848h202l211 -848l216 848h180z" />
<glyph unicode="x" horiz-adv-x="1029" d="M1007 0h-232l-265 405l-261 -405h-228l380 555l-361 521h233l248 -381l252 381h218l-363 -524z" />
<glyph unicode="y" horiz-adv-x="1029" d="M1007 1076q-166 -472 -314.5 -865.5t-182.5 -461.5q-66 -133 -149 -171.5t-235 -4.5v166q35 -13 63.5 -18.5t60 -3t58 22t45.5 56.5l74 171l-403 1109h204l293 -879l292 879h194z" />
<glyph unicode="z" horiz-adv-x="1029" d="M965 0h-901v140l647 784h-597v152h829v-149l-642 -780h664v-147z" />
</font>
</defs>
</svg>
